<?xml version="1.0" encoding="UTF-8" standalone="no" ?>
<!DOCTYPE svg PUBLIC "-//W3C//DTD SVG 1.1//EN" "http://www.w3.org/Graphics/SVG/1.1/DTD/svg11.dtd">
<svg xmlns="http://www.w3.org/2000/svg" xmlns:xlink="http://www.w3.org/1999/xlink" version="1.1" width="550" height="400" viewBox="0 0 550 400" xml:space="preserve">
<desc>Created with Fabric.js 5.2.4</desc>
<defs>
</defs>
<g transform="matrix(1 0 0 1 275 200)" id="e8b2e3e6-65d8-4a85-9ee5-6504141aefa4"  >
<rect style="stroke: none; stroke-width: 1; stroke-dasharray: none; stroke-linecap: butt; stroke-dashoffset: 0; stroke-linejoin: miter; stroke-miterlimit: 4; fill: rgb(255,255,255); fill-rule: nonzero; opacity: 1;" vector-effect="non-scaling-stroke"  x="-275" y="-200" rx="0" ry="0" width="550" height="400" />
</g>
<g transform="matrix(Infinity NaN NaN Infinity 0 0)" id="639eeed9-37d1-4897-881e-a75bc5bbc90b"  >
</g>
<g transform="matrix(0.72 0 0 0.72 275 200)"  >
<g style="" vector-effect="non-scaling-stroke"   >
		<g transform="matrix(1 0 0 1 3.4 236.45)"  >
<path style="stroke: none; stroke-width: 1; stroke-dasharray: none; stroke-linecap: butt; stroke-dashoffset: 0; stroke-linejoin: miter; stroke-miterlimit: 4; fill: rgb(147,144,139); fill-rule: evenodd; opacity: 1;" vector-effect="non-scaling-stroke"  transform=" translate(-391.83, 23.98)" d="M 277.4 -30.15 L 370.1 -28.85 L 384.4 -29.15 L 470.45 -29.75 L 523.6 -31.05 L 568.25 -28.8 Q 618.45 -26.55 686.75 -26.55 L 718.5 -28.55 L 773.15 -30.55 Q 790.25 -30.55 794.35 -28.2 Q 795.7 -27.35 795.65 -26.3 L 795.35 -24.75 Q 795.35 -22.05 795.15 -21.55 Q 794.8 -20.6 793.05 -20.35 L 773.15 -20.35 L 717.2 -18.65 L 686.75 -16.9 Q 603.75 -16.9 581.1 -17.9 L 550.35 -19.75 L 533.7 -20.75 L 523.6 -21.55 L 348.1 -19.6 Q 314.1 -19.6 280.85 -20.8 L 277.4 -20.95 L 277.4 -24.5 L 161.5 -25.8 L -10.5 -24.7 L -10.5 -22.35 L -11.35 -22.85 Q -12 -23.4 -12 -24.65 Q -12 -26.35 -10.5 -27.5 L -10.5 -26 L 161.5 -26.75 L 277.4 -25.85 L 277.4 -27.15 L 277.4 -28.25 L 277.4 -30.15" stroke-linecap="round" />
</g>
		<g transform="matrix(1 0 0 1 -259.13 -215)"  >
<path style="stroke: none; stroke-width: 1; stroke-dasharray: none; stroke-linecap: butt; stroke-dashoffset: 0; stroke-linejoin: miter; stroke-miterlimit: 4; fill: rgb(255,255,255); fill-rule: evenodd; opacity: 1;" vector-effect="non-scaling-stroke"  transform=" translate(-129.3, 475.42)" d="M -10.5 -421.4 L -10.5 -422.7 L 148.3 -427.7 L 277.4 -428.05 L 277.4 -426.45 L 200 -424 L 122.55 -424.6 L -10.5 -421.4 M -10.5 -437.85 L -10.5 -441.5 L 191 -446.8 L 277.4 -447.7 L 277.4 -440 Q 246.35 -440.3 214.1 -439.25 L 232.7 -438.25 L 47.55 -435.35 L -10.5 -437.85 M -10.5 -454 L -18.8 -453.85 L -11.7 -458.55 L -9.55 -460 L 49 -460 L 49 -455.25 L -10.5 -454 M -10.5 -495.7 L -10.5 -495.95 L 111.4 -495.75 L -10.5 -495.7 M -10.5 -510.15 L -10.5 -510.9 L -7.1 -510.9 L -10.5 -510.15 M -10.5 -533.95 L -10.5 -538.95 L 277.4 -540.3 L 277.4 -538.95 L -10.5 -533.95 M 277.4 -470.7 L 277.4 -467.35 L 61.2 -471.55 L 139.3 -475.1 Q 159.55 -474.45 179.95 -473.95 L 191 -473.35 Q 234.2 -471.5 277.4 -470.7 M 277.4 -420.05 L 277.4 -418.1 L 232.75 -417.15 L 178.75 -417.5 L 147.6 -418.75 L 150.85 -419.1 L 277.4 -420.05 M 8 -410.55 L 17 -411.05 L 82.7 -410.8 L 8 -410.55 M 48.95 -432.9 L 44.25 -432.9 L 46.65 -433.15 L 48.95 -432.9 M 135.55 -418.1 L 157.55 -417.15 L 113.3 -416 L 135.55 -418.1 M 174.45 -429.65 L 161.45 -430.05 L 200.8 -432.45 L 219.1 -432.1 L 174.45 -429.65" stroke-linecap="round" />
</g>
		<g transform="matrix(1 0 0 1 -254.98 -37.57)"  >
<path style="stroke: none; stroke-width: 1; stroke-dasharray: none; stroke-linecap: butt; stroke-dashoffset: 0; stroke-linejoin: miter; stroke-miterlimit: 4; fill: rgb(201,213,241); fill-rule: evenodd; opacity: 1;" vector-effect="non-scaling-stroke"  transform=" translate(-133.45, 298)" d="M -10.5 -27.5 L -10.5 -50.05 L 118.8 -53.95 L 191 -55.9 L 277.4 -57.9 L 277.4 -30.15 L 277.4 -28.25 L 234.2 -28.1 L 161.5 -26.75 L -10.5 -26 L -10.5 -27.5 M -10.5 -367.45 L -10.5 -367.75 L 163.3 -369.75 L 163.3 -369.1 L -10.5 -367.45 M -10.5 -368.4 L -10.5 -370.5 L -3.35 -371.1 L 23 -371.35 L -10.5 -368.4 M -10.5 -538.95 L -10.5 -567.75 L 42.7 -568.5 L 277.4 -570 L 277.4 -540.3 L -10.5 -538.95 M 150.85 -419.1 L 147.6 -418.75 L 135.55 -418.1 L 135.55 -418.65 L 150.85 -419.1" stroke-linecap="round" />
</g>
		<g transform="matrix(1 0 0 1 -255.54 -191.32)"  >
<path style="stroke: none; stroke-width: 1; stroke-dasharray: none; stroke-linecap: butt; stroke-dashoffset: 0; stroke-linejoin: miter; stroke-miterlimit: 4; fill: rgb(204,229,255); fill-rule: evenodd; opacity: 1;" vector-effect="non-scaling-stroke"  transform=" translate(-132.89, 451.75)" d="M -10.5 -403.75 L -10.5 -416.45 L 98.5 -417.5 L 135.55 -418.65 L 135.55 -418.1 L 113.3 -416 L 157.55 -417.15 L 135.55 -418.1 L 147.6 -418.75 L 178.75 -417.5 L 232.75 -417.15 L 277.4 -418.1 L 277.4 -414.4 L 233.3 -411.95 L 277.4 -411.65 L 277.4 -410.8 L 7.75 -404.35 L 8.4 -404.45 L -10.5 -403.75 M -10.5 -422.7 L -10.5 -437.85 L 47.55 -435.35 L 232.7 -438.25 L 214.1 -439.25 Q 246.35 -440.3 277.4 -440 L 277.4 -428.05 L 148.3 -427.7 L -10.5 -422.7 M -10.5 -441.5 L -10.5 -454 L 49 -455.25 L 49 -460 L -9.55 -460 L -11.7 -458.55 L -11.8 -458.75 Q -12.35 -459.85 -12.15 -461.05 Q -12.15 -463.15 -10.5 -464.05 L -10.5 -495.7 L 111.4 -495.75 L -10.5 -495.95 L -10.5 -510.15 L -7.1 -510.9 L -10.5 -510.9 L -10.5 -533.95 L 277.4 -538.95 L 277.4 -516.45 Q 278.05 -515.6 278.05 -514.15 Q 278.05 -511.8 277.35 -509.55 L 276.55 -507.7 L 276.65 -507.3 L 277.4 -507.35 L 277.4 -470.7 Q 234.2 -471.5 191 -473.35 L 179.95 -473.95 Q 159.55 -474.45 139.3 -475.1 L 61.2 -471.55 L 277.4 -467.35 L 277.4 -447.7 L 191 -446.8 L -10.5 -441.5 M 277.4 -426.45 L 277.4 -421.95 Q 238.8 -422.2 200 -424 L 277.4 -426.45 M 277.4 -391.75 L 277.4 -366.25 L 185.45 -364.55 L 231.8 -369.75 L 163.3 -369.1 L 163.3 -369.75 L 74.4 -374.75 L 166.05 -381.95 L 42.9 -381.9 Q 67 -384.35 91 -384.95 L 191 -389.35 Q 234.35 -390.9 277.4 -391.75 M 8 -410.55 L 82.7 -410.8 L 17 -411.05 L 8 -410.55 M 48.95 -432.9 L 46.65 -433.15 L 44.25 -432.9 L 48.95 -432.9 M 174.45 -429.65 L 219.1 -432.1 L 200.8 -432.45 L 161.45 -430.05 L 174.45 -429.65" stroke-linecap="round" />
</g>
		<g transform="matrix(1 0 0 1 -254.98 -21.8)"  >
<path style="stroke: none; stroke-width: 1; stroke-dasharray: none; stroke-linecap: butt; stroke-dashoffset: 0; stroke-linejoin: miter; stroke-miterlimit: 4; fill: rgb(198,223,248); fill-rule: evenodd; opacity: 1;" vector-effect="non-scaling-stroke"  transform=" translate(-133.45, 282.23)" d="M -10.5 -139.85 L -10.5 -153.85 L 277.4 -157.6 L 277.4 -143.75 L 191 -142.5 L 42.9 -140.35 L -10.5 -139.85 M -10.5 -154.65 L -10.5 -367.45 L 163.3 -369.1 L 231.8 -369.75 L 185.45 -364.55 L 277.4 -366.25 L 277.4 -159.75 L 191 -158.9 Q 116.75 -157.95 42.9 -156.25 Q 16.2 -155.7 -10.5 -154.65 M -10.5 -367.75 L -10.5 -368.4 L 23 -371.35 L -3.35 -371.1 L -10.5 -370.5 L -10.5 -403.75 L 8.4 -404.45 L 7.75 -404.35 L 277.4 -410.8 L 277.4 -391.75 Q 234.35 -390.9 191 -389.35 L 91 -384.95 Q 67 -384.35 42.9 -381.9 L 166.05 -381.95 L 74.4 -374.75 L 163.3 -369.75 L -10.5 -367.75 M -10.5 -416.45 L -10.5 -421.4 L 122.55 -424.6 L 200 -424 Q 238.8 -422.2 277.4 -421.95 L 277.4 -420.05 L 150.85 -419.1 L 135.55 -418.65 L 98.5 -417.5 L -10.5 -416.45" stroke-linecap="round" />
</g>
		<g transform="matrix(1 0 0 1 -254.98 268.38)"  >
<path style="stroke: none; stroke-width: 1; stroke-dasharray: none; stroke-linecap: butt; stroke-dashoffset: 0; stroke-linejoin: miter; stroke-miterlimit: 4; fill: rgb(175,171,164); fill-rule: evenodd; opacity: 1;" vector-effect="non-scaling-stroke"  transform=" translate(-133.45, -7.95)" d="M 277.4 22.45 L 277.4 23.75 L 248.5 23.75 L 277.4 22.45 M 277.4 43.3 L 277.4 44.15 L 261.25 44 L 277.4 43.3 M -10.5 16.4 L -10.5 16.15 L -5.8 16.1 L -10.5 16.4 M 277.4 -28.25 L 277.4 -27.15 L 234.2 -28.1 L 277.4 -28.25 M 176.2 17.95 L 124.2 20.05 L 148.45 17.8 L 176.2 17.95 M 120.65 16.5 L 85.55 15.05 L 114.05 13.7 L 183.9 13.95 L 120.65 16.5" stroke-linecap="round" />
</g>
		<g transform="matrix(1 0 0 1 -337.98 269.1)"  >
<path style="stroke: none; stroke-width: 1; stroke-dasharray: none; stroke-linecap: butt; stroke-dashoffset: 0; stroke-linejoin: miter; stroke-miterlimit: 4; fill: rgb(111,106,114); fill-rule: evenodd; opacity: 1;" vector-effect="non-scaling-stroke"  transform=" translate(-50.45, -8.67)" d="M -10.5 32.75 L -10.5 30.5 L 35.55 30.85 L -10.5 32.75 M -10.5 7.9 L -10.5 5.7 L 9.55 6.75 L -10.5 7.9 M -10.5 2.75 L -10.5 -12.4 L 52.15 -13.15 L 111.4 -15.4 L 15.15 -6.9 L 37.4 -7.5 L 9.55 -4.85 L 42.9 -1.75 L 31.75 4.1 L 13.25 5.75 L -1.5 3.1 L -10.5 2.75" stroke-linecap="round" />
</g>
		<g transform="matrix(1 0 0 1 -254.98 271)"  >
<path style="stroke: none; stroke-width: 1; stroke-dasharray: none; stroke-linecap: butt; stroke-dashoffset: 0; stroke-linejoin: miter; stroke-miterlimit: 4; fill: rgb(154,150,145); fill-rule: evenodd; opacity: 1;" vector-effect="non-scaling-stroke"  transform=" translate(-133.45, -10.57)" d="M 277.4 -20.95 L 277.4 6.15 L 235.95 6.85 L 265.2 7.85 L 69.05 13.35 L 114.05 13.7 L 85.55 15.05 L 120.65 16.5 L 89.2 17.8 L 148.45 17.8 L 124.2 20.05 L 176.2 17.95 L 277.4 17.4 L 277.4 22.45 L 248.5 23.75 L 35.55 31.55 L 79.9 33.1 L -1.5 37.8 L 205.95 37.8 L 39.2 47.65 L 165.15 47.55 L 133.7 49.25 L -10.5 49.25 L -10.5 32.75 L 35.55 30.85 L -10.5 30.5 L -10.5 16.4 L -5.8 16.1 L -10.5 16.15 L -10.5 7.9 L 9.55 6.75 L -10.5 5.7 L -10.5 2.75 L -1.5 3.1 L 13.25 5.75 L 31.75 4.1 L 42.9 -1.75 L 9.55 -4.85 L 37.4 -7.5 L 15.15 -6.9 L 111.4 -15.4 L 52.15 -13.15 L -10.5 -12.4 L -10.5 -22.35 L -10.5 -24.7 L 161.5 -25.8 L 277.4 -24.5 L 277.4 -20.95 M 277.4 -27.15 L 277.4 -25.85 L 161.5 -26.75 L 234.2 -28.1 L 277.4 -27.15" stroke-linecap="round" />
</g>
		<g transform="matrix(1 0 0 1 -254.98 155.53)"  >
<path style="stroke: none; stroke-width: 1; stroke-dasharray: none; stroke-linecap: butt; stroke-dashoffset: 0; stroke-linejoin: miter; stroke-miterlimit: 4; fill: rgb(190,214,237); fill-rule: evenodd; opacity: 1;" vector-effect="non-scaling-stroke"  transform=" translate(-133.45, 104.9)" d="M -10.5 -50.05 L -10.5 -139.85 L 42.9 -140.35 L 191 -142.5 L 277.4 -143.75 L 277.4 -57.9 L 191 -55.9 L 118.8 -53.95 L -10.5 -50.05 M -10.5 -153.85 L -10.5 -154.65 Q 16.2 -155.7 42.9 -156.25 Q 116.75 -157.95 191 -158.9 L 277.4 -159.75 L 277.4 -157.6 L -10.5 -153.85" stroke-linecap="round" />
</g>
		<g transform="matrix(1 0 0 1 -121.61 303.95)"  >
<path style="stroke: none; stroke-width: 1; stroke-dasharray: none; stroke-linecap: butt; stroke-dashoffset: 0; stroke-linejoin: miter; stroke-miterlimit: 4; fill: rgb(103,82,52); fill-rule: evenodd; opacity: 1;" vector-effect="non-scaling-stroke"  transform=" translate(-266.82, -43.52)" d="M 277.4 43.05 L 277.4 43.3 L 261.25 44 L 256.25 43.8 L 277.4 43.05" stroke-linecap="round" />
</g>
		<g transform="matrix(1 0 0 1 -250.48 288.13)"  >
<path style="stroke: none; stroke-width: 1; stroke-dasharray: none; stroke-linecap: butt; stroke-dashoffset: 0; stroke-linejoin: miter; stroke-miterlimit: 4; fill: rgb(50,54,38); fill-rule: evenodd; opacity: 1;" vector-effect="non-scaling-stroke"  transform=" translate(-137.95, -27.7)" d="M 277.4 6.15 L 277.4 17.4 L 176.2 17.95 L 148.45 17.8 L 89.2 17.8 L 120.65 16.5 L 183.9 13.95 L 114.05 13.7 L 69.05 13.35 L 265.2 7.85 L 235.95 6.85 L 277.4 6.15 M 277.4 23.75 L 277.4 43.05 L 256.25 43.8 L 261.25 44 L 277.4 44.15 L 277.4 47.55 L 191 47.2 L 165.15 47.55 L 39.2 47.65 L 205.95 37.8 L -1.5 37.8 L 79.9 33.1 L 35.55 31.55 L 248.5 23.75 L 277.4 23.75 M 277.4 48.15 L 277.4 49.25 L 252 49 L 277.4 48.15" stroke-linecap="round" />
</g>
		<g transform="matrix(1 0 0 1 -182.88 308.65)"  >
<path style="stroke: none; stroke-width: 1; stroke-dasharray: none; stroke-linecap: butt; stroke-dashoffset: 0; stroke-linejoin: miter; stroke-miterlimit: 4; fill: rgb(158,141,113); fill-rule: evenodd; opacity: 1;" vector-effect="non-scaling-stroke"  transform=" translate(-205.55, -48.23)" d="M 277.4 47.55 L 277.4 48.15 L 252 49 L 133.7 49.25 L 165.15 47.55 L 191 47.2 L 277.4 47.55" stroke-linecap="round" />
</g>
		<g transform="matrix(1 0 0 1 -133.08 -152.6)"  >
<path style="stroke: none; stroke-width: 1; stroke-dasharray: none; stroke-linecap: butt; stroke-dashoffset: 0; stroke-linejoin: miter; stroke-miterlimit: 4; fill: rgb(201,226,251); fill-rule: evenodd; opacity: 1;" vector-effect="non-scaling-stroke"  transform=" translate(-255.35, 413.02)" d="M 277.4 -414.4 L 277.4 -411.65 L 233.3 -411.95 L 277.4 -414.4" stroke-linecap="round" />
</g>
		<g transform="matrix(1 0 0 1 32.87 -218.77)"  >
<path style="stroke: none; stroke-width: 1; stroke-dasharray: none; stroke-linecap: butt; stroke-dashoffset: 0; stroke-linejoin: miter; stroke-miterlimit: 4; fill: rgb(255,255,255); fill-rule: evenodd; opacity: 1;" vector-effect="non-scaling-stroke"  transform=" translate(-421.3, 479.2)" d="M 627 -425.6 L 448.8 -424.55 L 333.5 -426.9 L 276.2 -426.45 L 276.2 -428.05 L 460.85 -430.9 L 471.1 -430.85 L 466.1 -431.15 L 493.5 -432.45 L 587.15 -433.7 L 732.3 -432.1 L 627 -425.6 M 471.45 -422.85 L 567.8 -423.7 L 599.15 -424.6 L 671.4 -423.7 L 552.05 -422.2 L 431.75 -418.75 L 403.55 -418.9 L 471.45 -422.85 M 794.8 -472.65 L 794.8 -469.6 L 784.3 -469.5 L 794.8 -468.85 L 794.8 -468.55 L 740.9 -468.1 L 771.45 -466.15 L 276.2 -467.35 L 276.2 -470.7 Q 304.8 -470.35 333.5 -470.55 Q 346.85 -470.55 360.3 -470.95 L 496.4 -474.3 L 539.85 -475.1 Q 562.25 -475.65 584.5 -475.65 Q 646.55 -476.1 707.8 -477.25 L 738.05 -477.45 Q 766.8 -477.45 794.8 -477.05 L 794.8 -476.65 L 732.5 -475.1 L 794.8 -472.65 M 794.8 -436.1 L 794.8 -435.3 L 782.85 -436.1 L 794.8 -436.1 M 644.5 -441.45 L 575.1 -438.9 L 572.25 -438.8 L 461.25 -440 Q 396.6 -439.6 333.5 -439.6 L 291.8 -439.6 L 276.2 -440 L 276.2 -447.7 L 352 -448.25 L 644.5 -441.45 M 331.8 -457.05 L 363.35 -455.15 L 280 -455.9 L 358.7 -460.15 L 346.7 -458.65 L 379 -458.35 L 331.8 -457.05 M 302.45 -419.6 L 276.2 -418.1 L 276.2 -420.05 L 302.45 -419.6 M 484.35 -460.7 L 469.25 -461.8 L 591.75 -461.5 L 465.85 -459.15 L 484.35 -460.7 M 47.8 -460 L 243 -459.15 L 167.05 -456.9 L 176.3 -457.85 L 47.8 -455.25 L 47.8 -460 M 276.2 -538.95 L 276.2 -540.3 L 312.7 -539.9 L 276.2 -538.95" stroke-linecap="round" />
</g>
		<g transform="matrix(1 0 0 1 279.17 -24.27)"  >
<path style="stroke: none; stroke-width: 1; stroke-dasharray: none; stroke-linecap: butt; stroke-dashoffset: 0; stroke-linejoin: miter; stroke-miterlimit: 4; fill: rgb(187,211,234); fill-rule: evenodd; opacity: 1;" vector-effect="non-scaling-stroke"  transform=" translate(-667.6, 284.7)" d="M 794.8 -146.95 L 794.8 -143.25 L 790 -143 L 707.8 -143.05 L 584.5 -143.2 Q 562.4 -143.25 540.4 -143.45 L 619.5 -144.45 L 593.1 -145.1 L 794.8 -146.95 M 794.8 -136.9 L 794.8 -136.55 L 651.3 -136 L 664 -136.45 L 645.05 -137.2 L 794.8 -136.9 M 794.8 -131.4 L 794.8 -130.5 L 762.2 -130.6 L 794.8 -131.4 M 575.1 -438.9 L 577.95 -438.65 L 572.25 -438.8 L 575.1 -438.9" stroke-linecap="round" />
</g>
		<g transform="matrix(1 0 0 1 147.07 8.43)"  >
<path style="stroke: none; stroke-width: 1; stroke-dasharray: none; stroke-linecap: butt; stroke-dashoffset: 0; stroke-linejoin: miter; stroke-miterlimit: 4; fill: rgb(201,213,241); fill-rule: evenodd; opacity: 1;" vector-effect="non-scaling-stroke"  transform=" translate(-535.5, 252)" d="M 276.2 -411.65 L 300.65 -411.5 L 276.2 -410.8 L 276.2 -411.65 M 794.8 -476.65 L 794.8 -472.65 L 732.5 -475.1 L 794.8 -476.65 M 794.8 -469.6 L 794.8 -468.85 L 784.3 -469.5 L 794.8 -469.6 M 794.8 -64.55 L 794.8 -30.2 L 737.1 -27.55 L 722.45 -27.35 L 276.2 -27.9 L 276.2 -57.45 L 333.5 -58.55 L 432.45 -60.05 L 496.4 -61 L 584.5 -61.9 L 707.8 -63.5 L 714 -63.55 L 791.8 -64.55 L 794.8 -64.55 M 460.85 -430.9 L 466.1 -431.15 L 471.1 -430.85 L 460.85 -430.9" stroke-linecap="round" />
</g>
		<g transform="matrix(1 0 0 1 147.07 -24.37)"  >
<path style="stroke: none; stroke-width: 1; stroke-dasharray: none; stroke-linecap: butt; stroke-dashoffset: 0; stroke-linejoin: miter; stroke-miterlimit: 4; fill: rgb(198,223,248); fill-rule: evenodd; opacity: 1;" vector-effect="non-scaling-stroke"  transform=" translate(-535.5, 284.8)" d="M 794.8 -410 L 782.55 -409.7 Q 745.2 -409.2 707.8 -409.15 L 667.65 -408.85 Q 647.25 -409.15 628.75 -408.15 L 584.5 -406.45 L 510.25 -402.5 L 496.4 -401.25 Q 420.05 -395.05 343.7 -393 L 333.5 -392.8 L 276.2 -391.75 L 276.2 -410.8 L 300.65 -411.5 L 276.2 -411.65 L 276.2 -414.4 L 403.55 -418.9 L 431.75 -418.75 L 552.05 -422.2 L 671.4 -423.7 L 599.15 -424.6 L 567.8 -423.7 L 471.45 -422.85 L 448.8 -424.55 L 627 -425.6 L 680.65 -423.7 L 794.8 -426.15 L 794.8 -410 M 276.2 -366.25 L 447.7 -368.6 L 429.5 -367.05 L 794.8 -374.2 L 794.8 -355.75 L 431.35 -350.3 L 436.2 -349.9 L 419.1 -348.75 L 794.8 -351.15 L 794.8 -155.45 L 766.9 -155.4 L 794.8 -154.55 L 794.8 -149.8 L 707.8 -149.1 L 606.5 -148.2 L 584.5 -147.9 L 496.4 -146.65 L 333.5 -144.3 L 276.2 -143.45 L 276.2 -157.35 L 354.7 -158.55 L 338.05 -158.9 L 389.9 -159.8 Q 372.25 -160 354.7 -159.8 L 333.5 -159.75 L 276.2 -159.3 L 276.2 -366.25 M 794.8 -379.55 L 651.05 -376.25 L 691.75 -381.95 L 630.65 -384.35 L 584.5 -398.1 L 794.8 -408.05 L 794.8 -379.55 M 276.2 -421.95 L 333.5 -422.15 L 334.3 -422.15 Q 371.3 -422.85 412.05 -422.15 L 302.45 -419.6 L 276.2 -420.05 L 276.2 -421.95" stroke-linecap="round" />
</g>
		<g transform="matrix(1 0 0 1 147.09 -147.15)"  >
<path style="stroke: none; stroke-width: 1; stroke-dasharray: none; stroke-linecap: butt; stroke-dashoffset: 0; stroke-linejoin: miter; stroke-miterlimit: 4; fill: rgb(203,228,253); fill-rule: evenodd; opacity: 1;" vector-effect="non-scaling-stroke"  transform=" translate(-535.53, 407.57)" d="M 276.2 -391.75 L 333.5 -392.8 L 343.7 -393 Q 420.05 -395.05 496.4 -401.25 L 510.25 -402.5 L 584.5 -406.45 L 628.75 -408.15 Q 647.25 -409.15 667.65 -408.85 L 707.8 -409.15 Q 745.2 -409.2 782.55 -409.7 L 794.8 -410 L 794.8 -408.05 L 584.5 -398.1 L 630.65 -384.35 L 691.75 -381.95 L 651.05 -376.25 L 794.8 -379.55 L 794.8 -374.2 L 429.5 -367.05 L 447.7 -368.6 L 276.2 -366.25 L 276.2 -391.75 M 794.8 -436.95 L 794.85 -435.95 L 794.8 -434 L 732.3 -432.1 L 587.15 -433.7 L 568.2 -434.85 L 775.5 -436.15 L 782.85 -436.1 L 794.8 -435.3 L 794.8 -436.1 L 794.8 -436.95 M 352 -448.25 L 344.2 -448.9 L 769.6 -442.5 L 644.5 -441.45 L 352 -448.25" stroke-linecap="round" />
</g>
		<g transform="matrix(1 0 0 1 147.07 -199.3)"  >
<path style="stroke: none; stroke-width: 1; stroke-dasharray: none; stroke-linecap: butt; stroke-dashoffset: 0; stroke-linejoin: miter; stroke-miterlimit: 4; fill: rgb(204,229,255); fill-rule: evenodd; opacity: 1;" vector-effect="non-scaling-stroke"  transform=" translate(-535.5, 459.73)" d="M 794.8 -426.15 L 680.65 -423.7 L 627 -425.6 L 732.3 -432.1 L 794.8 -434 L 794.8 -426.15 M 448.8 -424.55 L 471.45 -422.85 L 403.55 -418.9 L 276.2 -414.4 L 276.2 -418.1 L 302.45 -419.6 L 412.05 -422.15 Q 371.3 -422.85 334.3 -422.15 L 333.5 -422.15 L 276.2 -421.95 L 276.2 -426.45 L 333.5 -426.9 L 448.8 -424.55 M 794.8 -468.55 L 794.8 -436.95 L 794.8 -436.1 L 782.85 -436.1 L 775.5 -436.15 L 568.2 -434.85 L 587.15 -433.7 L 493.5 -432.45 L 466.1 -431.15 L 460.85 -430.9 L 276.2 -428.05 L 276.2 -440 L 291.8 -439.6 L 333.5 -439.6 Q 396.6 -439.6 461.25 -440 L 572.25 -438.8 L 577.95 -438.65 L 575.1 -438.9 L 644.5 -441.45 L 769.6 -442.5 L 344.2 -448.9 L 352 -448.25 L 276.2 -447.7 L 276.2 -467.35 L 771.45 -466.15 L 740.9 -468.1 L 794.8 -468.55 M 794.8 -477.05 Q 766.8 -477.45 738.05 -477.45 L 707.8 -477.25 Q 646.55 -476.1 584.5 -475.65 Q 562.25 -475.65 539.85 -475.1 L 496.4 -474.3 L 360.3 -470.95 Q 346.85 -470.55 333.5 -470.55 Q 304.8 -470.35 276.2 -470.7 L 276.2 -507.35 L 276.45 -507.35 L 404.7 -510.1 L 395.45 -509.1 L 464.1 -511.25 L 471.4 -511.5 L 463.5 -511.55 L 276.25 -512.4 L 276.2 -512.4 L 276.2 -538.95 L 312.7 -539.9 L 276.2 -540.3 L 276.2 -570 L 496.4 -570.7 L 794.8 -570.45 L 794.8 -477.05 M 794.8 -355.75 L 794.8 -351.15 L 419.1 -348.75 L 436.2 -349.9 L 431.35 -350.3 L 794.8 -355.75 M 365.8 -499.9 L 413 -501.25 L 380.7 -501.55 L 392.7 -503.15 L 314 -498.6 L 397.35 -497.8 L 365.8 -499.9 M 331.8 -457.05 L 379 -458.35 L 346.7 -458.65 L 358.7 -460.15 L 280 -455.9 L 363.35 -455.15 L 331.8 -457.05 M 484.35 -460.7 L 465.85 -459.15 L 591.75 -461.5 L 469.25 -461.8 L 484.35 -460.7" stroke-linecap="round" />
</g>
		<g transform="matrix(1 0 0 1 147.07 151.73)"  >
<path style="stroke: none; stroke-width: 1; stroke-dasharray: none; stroke-linecap: butt; stroke-dashoffset: 0; stroke-linejoin: miter; stroke-miterlimit: 4; fill: rgb(190,214,237); fill-rule: evenodd; opacity: 1;" vector-effect="non-scaling-stroke"  transform=" translate(-535.5, 108.7)" d="M 794.8 -149.8 L 794.8 -146.95 L 593.1 -145.1 L 619.5 -144.45 L 540.4 -143.45 Q 562.4 -143.25 584.5 -143.2 L 707.8 -143.05 L 790 -143 L 794.8 -143.25 L 794.8 -136.9 L 645.05 -137.2 L 664 -136.45 L 651.3 -136 L 794.8 -136.55 L 794.8 -131.4 L 762.2 -130.6 L 794.8 -130.5 L 794.8 -64.55 L 791.8 -64.55 L 714 -63.55 L 707.8 -63.5 L 584.5 -61.9 L 496.4 -61 L 432.45 -60.05 L 333.5 -58.55 L 276.2 -57.45 L 276.2 -143.45 L 333.5 -144.3 L 496.4 -146.65 L 584.5 -147.9 L 606.5 -148.2 L 707.8 -149.1 L 794.8 -149.8 M 276.2 -157.35 L 276.2 -159.3 L 333.5 -159.75 L 354.7 -159.8 Q 372.25 -160 389.9 -159.8 L 338.05 -158.9 L 354.7 -158.55 L 276.2 -157.35" stroke-linecap="round" />
</g>
		<g transform="matrix(1 0 0 1 147.07 261.5)"  >
<path style="stroke: none; stroke-width: 1; stroke-dasharray: none; stroke-linecap: butt; stroke-dashoffset: 0; stroke-linejoin: miter; stroke-miterlimit: 4; fill: rgb(154,150,145); fill-rule: evenodd; opacity: 1;" vector-effect="non-scaling-stroke"  transform=" translate(-535.5, -1.07)" d="M 794.8 -30.2 L 794.8 -25.95 L 678 -26.15 L 707.8 -26.95 L 722.45 -27.35 L 737.1 -27.55 L 794.8 -30.2 M 335.35 -25.85 L 276.2 -25.85 L 276.2 -26.8 L 333.5 -25.9 L 335.35 -25.85 M 794.8 -20.6 L 695.5 -16.45 L 788.1 -13.8 L 624.15 -7.7 L 721.4 -6.4 L 677 -2.7 L 770.55 -4.55 L 794.8 -1.1 L 794.8 2.5 L 794.65 2.5 L 790.25 2.6 L 793.6 2.6 L 794.8 2.6 L 794.8 18.5 L 750.15 17.5 L 761.25 15.1 L 727.85 13.75 L 358.45 15.75 L 521.4 5.75 L 276.2 6.5 L 276.2 -24.5 L 357.1 -24.3 Q 367.05 -23.9 376.95 -23.85 Q 437 -22.75 496.4 -22.75 Q 540.7 -22.75 584.5 -23.35 Q 600.45 -23.6 616.35 -24.2 L 678 -24.9 L 794.8 -24.65 L 794.8 -20.6 M 276.2 17.95 L 347.35 20.95 L 276.2 23 L 276.2 17.95 M 744.65 31.9 L 752 30.85 L 775.95 32.35 L 744.65 31.9 M 671.8 27.7 L 666.05 27.8 L 660.3 27.4 L 671.8 27.7 M 410.4 2.55 L 392.3 3.85 L 427.4 3.25 L 406.6 3.1 L 410.4 2.55 M 706.25 31.65 L 641.7 32.35 L 666.85 30.85 L 706.25 31.65" stroke-linecap="round" />
</g>
		<g transform="matrix(1 0 0 1 147.07 271.38)"  >
<path style="stroke: none; stroke-width: 1; stroke-dasharray: none; stroke-linecap: butt; stroke-dashoffset: 0; stroke-linejoin: miter; stroke-miterlimit: 4; fill: rgb(175,171,164); fill-rule: evenodd; opacity: 1;" vector-effect="non-scaling-stroke"  transform=" translate(-535.5, -10.95)" d="M 678 -26.15 L 616.35 -25.75 L 335.35 -25.85 L 333.5 -25.9 L 276.2 -26.8 L 276.2 -27.9 L 722.45 -27.35 L 707.8 -26.95 L 678 -26.15 M 616.35 -24.2 Q 600.45 -23.6 584.5 -23.35 Q 540.7 -22.75 496.4 -22.75 Q 437 -22.75 376.95 -23.85 Q 367.05 -23.9 357.1 -24.3 L 616.35 -24.2 M 750.15 17.5 L 794.8 18.5 L 794.8 49.8 L 508.65 48.05 L 582.45 45.05 L 276.2 44.65 L 276.2 43.8 L 280.5 43.55 L 706.65 34.35 L 744.65 31.9 L 775.95 32.35 L 752 30.85 L 739.9 28.15 L 671.8 27.7 L 660.3 27.4 L 666.05 27.8 L 588.15 27.05 L 705.55 21.5 L 750.15 17.5 M 726.8 17.4 L 623.75 19.95 L 635.35 20.2 L 470.35 23.45 L 489.25 22 L 276.2 24.1 L 276.2 23 L 347.35 20.95 L 276.2 17.95 L 276.2 17.8 L 712.55 16.65 L 726.8 17.4" stroke-linecap="round" />
</g>
		<g transform="matrix(1 0 0 1 392.42 105.43)"  >
<path style="stroke: none; stroke-width: 1; stroke-dasharray: none; stroke-linecap: butt; stroke-dashoffset: 0; stroke-linejoin: miter; stroke-miterlimit: 4; fill: rgb(183,206,229); fill-rule: evenodd; opacity: 1;" vector-effect="non-scaling-stroke"  transform=" translate(-780.85, 155)" d="M 794.8 -155.45 L 794.8 -154.55 L 766.9 -155.4 L 794.8 -155.45" stroke-linecap="round" />
</g>
		<g transform="matrix(1 0 0 1 321.04 249.58)"  >
<path style="stroke: none; stroke-width: 1; stroke-dasharray: none; stroke-linecap: butt; stroke-dashoffset: 0; stroke-linejoin: miter; stroke-miterlimit: 4; fill: rgb(111,106,114); fill-rule: evenodd; opacity: 1;" vector-effect="non-scaling-stroke"  transform=" translate(-709.47, 10.85)" d="M 794.8 -1.1 L 770.55 -4.55 L 677 -2.7 L 721.4 -6.4 L 624.15 -7.7 L 788.1 -13.8 L 695.5 -16.45 L 794.8 -20.6 L 794.8 -1.1" stroke-linecap="round" />
</g>
		<g transform="matrix(1 0 0 1 405.77 262.98)"  >
<path style="stroke: none; stroke-width: 1; stroke-dasharray: none; stroke-linecap: butt; stroke-dashoffset: 0; stroke-linejoin: miter; stroke-miterlimit: 4; fill: rgb(95,91,114); fill-rule: evenodd; opacity: 1;" vector-effect="non-scaling-stroke"  transform=" translate(-794.2, -2.55)" d="M 794.8 2.6 L 793.6 2.6 L 794.65 2.5 L 794.8 2.5 L 794.8 2.6" stroke-linecap="round" />
</g>
		<g transform="matrix(1 0 0 1 205.04 263.6)"  >
<path style="stroke: none; stroke-width: 1; stroke-dasharray: none; stroke-linecap: butt; stroke-dashoffset: 0; stroke-linejoin: miter; stroke-miterlimit: 4; fill: rgb(158,127,80); fill-rule: evenodd; opacity: 1;" vector-effect="non-scaling-stroke"  transform=" translate(-593.48, -3.17)" d="M 793.6 2.6 L 790.25 2.6 L 794.65 2.5 L 793.6 2.6 M 410.4 2.55 L 406.6 3.1 L 427.4 3.25 L 392.3 3.85 L 410.4 2.55" stroke-linecap="round" />
</g>
		<g transform="matrix(1 0 0 1 130.29 288.23)"  >
<path style="stroke: none; stroke-width: 1; stroke-dasharray: none; stroke-linecap: butt; stroke-dashoffset: 0; stroke-linejoin: miter; stroke-miterlimit: 4; fill: rgb(50,54,38); fill-rule: evenodd; opacity: 1;" vector-effect="non-scaling-stroke"  transform=" translate(-518.73, -27.8)" d="M 276.2 6.5 L 521.4 5.75 L 358.45 15.75 L 727.85 13.75 L 761.25 15.1 L 750.15 17.5 L 705.55 21.5 L 588.15 27.05 L 666.05 27.8 L 671.8 27.7 L 739.9 28.15 L 752 30.85 L 744.65 31.9 L 706.65 34.35 L 280.5 43.55 L 276.2 43.55 L 276.2 24.1 L 489.25 22 L 470.35 23.45 L 635.35 20.2 L 623.75 19.95 L 726.8 17.4 L 740.8 16.6 L 712.55 16.65 L 276.2 17.8 L 276.2 6.5 M 276.2 44.65 L 582.45 45.05 L 508.65 48.05 L 276.2 49.85 L 276.2 48.85 L 301.05 48.4 L 276.2 48.15 L 276.2 44.65 M 706.25 31.65 L 666.85 30.85 L 641.7 32.35 L 706.25 31.65" stroke-linecap="round" />
</g>
		<g transform="matrix(1 0 0 1 120.07 290.63)"  >
<path style="stroke: none; stroke-width: 1; stroke-dasharray: none; stroke-linecap: butt; stroke-dashoffset: 0; stroke-linejoin: miter; stroke-miterlimit: 4; fill: rgb(103,82,52); fill-rule: evenodd; opacity: 1;" vector-effect="non-scaling-stroke"  transform=" translate(-508.5, -30.2)" d="M 726.8 17.4 L 712.55 16.65 L 740.8 16.6 L 726.8 17.4 M 276.2 43.55 L 280.5 43.55 L 276.2 43.8 L 276.2 43.55" stroke-linecap="round" />
</g>
		<g transform="matrix(1 0 0 1 -99.81 308.93)"  >
<path style="stroke: none; stroke-width: 1; stroke-dasharray: none; stroke-linecap: butt; stroke-dashoffset: 0; stroke-linejoin: miter; stroke-miterlimit: 4; fill: rgb(158,141,113); fill-rule: evenodd; opacity: 1;" vector-effect="non-scaling-stroke"  transform=" translate(-288.63, -48.5)" d="M 276.2 48.15 L 301.05 48.4 L 276.2 48.85 L 276.2 48.15" stroke-linecap="round" />
</g>
		<g transform="matrix(1 0 0 1 -18.41 -244.67)"  >
<path style="stroke: none; stroke-width: 1; stroke-dasharray: none; stroke-linecap: butt; stroke-dashoffset: 0; stroke-linejoin: miter; stroke-miterlimit: 4; fill: rgb(182,205,228); fill-rule: evenodd; opacity: 1;" vector-effect="non-scaling-stroke"  transform=" translate(-370.02, 505.1)" d="M 463.5 -511.55 L 464.1 -511.25 L 395.45 -509.1 L 404.7 -510.1 L 276.45 -507.35 Q 276 -508.75 275.95 -510.3 Q 275.95 -511.5 276.25 -512.4 L 463.5 -511.55 M 365.8 -499.9 L 397.35 -497.8 L 314 -498.6 L 392.7 -503.15 L 380.7 -501.55 L 413 -501.25 L 365.8 -499.9" stroke-linecap="round" />
</g>
</g>
</g>
<g transform="matrix(3.79 0 0 3.79 275 200)"  >
<g style="" vector-effect="non-scaling-stroke"   >
		<g transform="matrix(1 0 0 1 -0.23 -1.25)"  >
<path style="stroke: none; stroke-width: 1; stroke-dasharray: none; stroke-linecap: butt; stroke-dashoffset: 0; stroke-linejoin: miter; stroke-miterlimit: 4; fill: rgb(179,195,225); fill-opacity: 0.8; fill-rule: evenodd; opacity: 1;" vector-effect="non-scaling-stroke"  transform=" translate(0.15, 1.04)" d="M -25.1 -32.4 L -25.2 -32.2 L -23.9 -32.1 L -17.4 -32.8 Q -13.9 -33 -11.6 -32.7 L -2.25 -33.25 L 0.75 -32.95 L 1.4 -33.2 L 9 -34 Q 25.5 -34.6 30.7 -30.6 Q 35.3 -27.1 35.3 -15.85 L 34.8 -12 L 34.3 -6.85 L 34.45 0.2 L 34.5 0.3 L 34.45 0.8 L 34.5 1.9 L 34.2 6.3 L 34.25 7.5 Q 34.25 11.8 34.5 14.55 L 34.25 16.5 Q 33.95 17.75 34.05 18.3 L 34.65 20 Q 35.05 20.95 35.05 21.65 L 34.3 24.7 L 33.55 27.3 Q 33.05 31.65 29 31.8 L 28.25 32 L 23.7 32.15 L 20 31.55 L 14.2 32.1 L 10.5 32.55 L 2.65 32.25 L -5.1 31.8 L -5.3 31.7 L -6.5 32 L -14.5 32.3 Q -29.25 32.3 -33.55 29.5 Q -34.95 28.6 -35.2 27.3 L -35.25 25.8 Q -35.6 23.2 -35.6 18.5 L -35.35 12.65 Q -35 7.25 -34.5 4.05 Q -34.1 1.45 -34.25 -2.8 L -34.5 -9.75 Q -34.5 -19.1 -34.1 -23.6 Q -34.25 -25.05 -33.85 -27.15 Q -33.4 -29.4 -32.5 -30.75 Q -31 -32.9 -28.2 -33.9 Q -25.1 -35.05 -25.1 -32.4" stroke-linecap="round" />
</g>
		<g transform="matrix(1 0 0 1 -3.2 -3.51)"  >
<path style="stroke: none; stroke-width: 1; stroke-dasharray: none; stroke-linecap: butt; stroke-dashoffset: 0; stroke-linejoin: miter; stroke-miterlimit: 4; fill: rgb(203,221,255); fill-opacity: 0.5; fill-rule: evenodd; opacity: 1;" vector-effect="non-scaling-stroke"  transform=" translate(3.13, 3.31)" d="M 16.25 -29.5 L 16.2 -29.2 L 15.5 -29.05 L 18.5 -28.95 L 21.75 -29.15 L 22.5 -28.65 L 22.6 -28.5 Q 22.5 -28.3 22.05 -28.25 L 22.1 -28.15 Q 21.6 -27.9 20.5 -27.75 L 21.35 -27.3 Q 22.35 -27.95 24.35 -27.6 Q 25.9 -27.35 27 -26.75 L 27 -26.55 Q 27.35 -26.4 26.75 -26.4 L 21.75 -26.9 L 21.55 -27.1 L 17.35 -26.4 L 13.5 -26.15 L 10.6 -26.15 L 13.05 -27 L 16.5 -27.65 L 14.75 -27.65 L 12.05 -27.65 L 12.15 -27.4 Q 11.7 -27.05 10.6 -26.95 L 5 -26.8 L 1.25 -26.25 L 0 -26.25 L -0.7 -26.55 L -5.6 -26.5 L -4.65 -26 Q -5.4 -25.5 -6.75 -25.5 L -11.1 -25.1 L -12.85 -24.3 Q -15.4 -22.95 -17.45 -21.2 L -18.75 -19.75 Q -19.5 -18.75 -21.5 -17.4 L -21.55 -17.5 L -19.45 -20.5 L -16.8 -23.75 Q -14.85 -25.75 -11.3 -26.45 L -13.75 -26.4 L -15.5 -26 L -17.9 -25.1 L -17.3 -25.15 L -20.5 -22.8 L -20.65 -22.6 L -21.2 -21.7 Q -19.9 -22.8 -18.55 -23.15 L -18.5 -23 Q -21.2 -21 -22.9 -18.5 Q -23.9 -17.1 -25.1 -14.45 Q -24.15 -16.1 -23 -17.15 L -22.6 -17.1 L -22.5 -16.65 Q -22.5 -15.8 -23.45 -14.25 L -25.05 -11.75 L -26.05 -9.35 Q -26.5 -8.2 -27.15 -7.6 L -27.8 -5 L -28.15 -5 L -28.55 -7.35 Q -29.1 -5.6 -30 -4.25 L -30.35 -4.45 L -30.5 -4.9 L -30.85 -3.25 L -31.9 2.15 L -31.55 9.25 L -31.6 9.85 L -30.95 7.75 Q -30.4 2.5 -28.65 -2.05 Q -28.8 -0.05 -29.55 3.3 L -30.3 6.8 L -30.15 6.65 Q -31.5 13.05 -31.8 23.9 L -32.05 23.9 L -32.45 21.3 Q -32.75 22.5 -33.3 23.25 L -33.5 20.9 L -33 8.25 L -33.05 8.25 L -33.25 6.25 L -33.3 6.05 L -33.55 8.15 L -33.75 8.25 L -34.25 3.05 Q -34.25 -4.9 -31.15 -12.55 L -29.7 -15.75 L -29.75 -16.25 Q -29.75 -20 -26.7 -23.8 Q -25.25 -25.6 -24 -26.1 L -26.8 -25.8 L -27 -25.55 Q -27.8 -24.5 -28.9 -21.5 L -30.35 -17.85 Q -31.2 -15.5 -31.5 -13.65 L -31.7 -13.45 L -32.25 -13.3 Q -33.05 -13.3 -33.15 -15.05 Q -33.15 -16.45 -32.65 -17.55 L -32.35 -18.15 Q -32.9 -19.2 -32.9 -22.05 Q -32.9 -24 -31.55 -26.5 Q -30.55 -28.5 -28.5 -29.65 L -30 -29.4 Q -30.5 -29.55 -30.5 -30.25 Q -32.15 -29.25 -33.65 -26.1 Q -35.2 -23 -34.15 -23 L -34.25 -21.9 L -34.25 -21.8 L -34.75 -21.75 Q -35.7 -21.75 -35.85 -22.35 L -35.8 -23.3 Q -35.8 -25.35 -33.85 -27.9 Q -31.7 -30.75 -28.8 -31.75 L -28.55 -31.1 Q -28.5 -30.8 -28.8 -30.65 L -28.8 -30.55 L -28.35 -30.55 L -27.6 -30.5 L -26.4 -30.7 L -25.7 -31.05 Q -23.75 -31.95 -21.25 -32.05 L -10.85 -32.6 Q -3.65 -32.8 -2.55 -32 Q -2.95 -31.45 -3.6 -31.35 L -10.75 -31 L -15.75 -30.7 L -17.7 -30.55 L -16.9 -30.25 L -16.25 -29.75 L -9.5 -30.5 L -9 -30.55 L -8.2 -30.65 L -7.25 -30.75 L -2 -31.25 L -2 -31.3 L 7.5 -31.3 L 11.25 -31.75 L 18 -31.75 L 19.1 -30.8 L 18.95 -30.55 Q 24 -30.95 25.95 -30.55 Q 27.25 -30.25 28.6 -29.1 L 28.75 -29 L 28.75 -28.9 L 29.6 -28 L 29.5 -27.8 L 27.7 -28.55 L 25.65 -29 L 21.95 -29.5 L 16.75 -29.5 L 16 -30 L 15.8 -30.2 L 13.25 -30 L 16.25 -29.5 M 0 -29.1 L 0.2 -29.55 L -0.1 -29.55 L -4.4 -29.2 L -4.15 -29 Q -4.45 -28.65 -5.3 -28.3 L 0.35 -28.55 Q 0 -28.9 0 -29.1 M 0.9 -30 L 0.7 -30 L 0.8 -29.95 L 0.9 -30 M 12 -22.5 L 12.6 -22.4 L -1.25 -23 L -9.6 -22.15 L -12.75 -21.25 L -13.15 -21.55 Q -11.25 -22.9 -6.65 -23.15 L 12 -22.5 M 6.75 -23.3 L 7 -23.3 Q 7 -23.7 7.5 -23.9 L 17.7 -23.5 Q 20.2 -22.9 21.75 -21 L 17.25 -22.05 Q 12.8 -23.1 7.5 -23 L 7.3 -23.1 L 6.6 -23.15 L 6.75 -23.3 M 22 -24.8 L 22.85 -24.5 L 16.6 -25.05 L 22 -24.8 M -20.2 -28.9 Q -22.75 -28.9 -24.65 -27.75 L -19 -28.9 L -20.2 -28.9 M -21.5 -25.5 Q -21.85 -25.2 -22.15 -25.15 L -23.4 -25 Q -25.05 -23.7 -26.15 -21.6 L -26 -21.4 L -26 -21.2 L -24.35 -22.85 Q -23.3 -24.25 -19.8 -25.7 L -19.8 -25.75 L -21.5 -25.5 M -19.15 -26.4 L -19.2 -25.95 L -18.05 -26.4 L -19.15 -26.4 M -13.65 -28.5 L -14.5 -28.3 L -13.45 -28.45 Q -12.75 -28.6 -13.65 -28.5 M -25.65 -28.9 L -22.95 -29.9 L -21.2 -30.4 L -24.4 -30.05 L -25 -29.55 L -25.8 -29.35 L -25.65 -28.9 M -29.8 -23.7 L -29.8 -25.5 Q -29.8 -25.95 -29.2 -26.6 L -28.25 -27.9 L -28 -28.35 Q -29.65 -26.5 -30.35 -24.9 L -30.5 -24.5 L -30.7 -23.3 L -30.65 -21.65 L -29.8 -23.7 M -22.7 -26.25 L -21.65 -25.65 L -22.15 -26.3 L -22.7 -26.25 M -25.5 -16.45 L -23.1 -19.85 L -22.5 -20.95 Q -24.45 -18.9 -25.5 -16.6 L -25.75 -16 L -25.5 -16.45 M -24.55 -21.75 L -24.75 -22 L -24.7 -22.05 L -26.2 -20 L -27 -15.15 L -25.35 -19 Q -24.1 -21.4 -22.5 -22.85 L -24.55 -21.75 M -18.4 -18.5 Q -21.85 -14.6 -23.3 -8.85 L -23.45 -8.1 Q -22.05 -10.65 -20.15 -12.55 Q -22.25 -10.1 -23.65 -6.95 L -24.8 0.75 L -25.05 0.75 L -25.3 -0.65 L -25.2 -2.8 L -25.7 -1 L -26.7 3.35 L -26.8 5.4 L -27 5.5 L -27 4.95 L -28.15 10.75 L -28.3 10.75 L -27.05 4 L -27.3 -0.15 Q -28.05 1.9 -28.55 5.25 L -29.3 11.25 L -29.5 11.5 L -29.75 9.5 Q -29.75 7.35 -28.35 0.05 L -26.8 -8 L -26.3 -8 L -26.05 -7.2 Q -26.05 -5.45 -26.4 -0.6 L -26.55 1.25 L -26.05 -1.1 L -25 -4.65 Q -24.65 -7.35 -23.8 -10 Q -21.9 -15.8 -18.4 -18.5 M -20.3 -10.5 Q -21.3 -8.55 -21.95 -5.15 L -23.05 0.25 L -23.3 0.35 L -23.4 0.05 L -22.75 -5.55 Q -22.2 -8.8 -20.15 -11.15 L -19.3 -12.1 L -20.3 -10.5 M -16 -22.75 L -16.95 -21.75 L -14.15 -24 L -16 -22.75 M -6 -21.55 Q -12.05 -18.6 -15.65 -15.7 Q -10.9 -19.95 -6 -21.55 M -8.65 -18.25 Q -14.45 -14.05 -17.15 -8.35 Q -18.5 -5.6 -20.3 1.75 L -20.65 1.75 L -20.75 0.7 Q -20.75 -3.6 -16.85 -10.1 Q -12.7 -16.95 -8.65 -18.25 M -30.05 15.75 L -30.4 18.5 Q -30.4 19.65 -29 25.9 L -29.15 26.1 Q -29.9 25 -30.5 22.45 Q -31 20.2 -31 18.5 L -30.95 17.1 L -30.05 15.75" stroke-linecap="round" />
</g>
		<g transform="matrix(1 0 0 1 1.67 2.77)"  >
<path style="stroke: none; stroke-width: 1; stroke-dasharray: none; stroke-linecap: butt; stroke-dashoffset: 0; stroke-linejoin: miter; stroke-miterlimit: 4; fill: rgb(125,141,172); fill-opacity: 0.5; fill-rule: evenodd; opacity: 1;" vector-effect="non-scaling-stroke"  transform=" translate(-1.74, -2.97)" d="M 32.85 20.8 L 32.35 23.45 L 32.3 23.85 Q 33.6 24.3 33.5 27.05 Q 33.5 28.45 32.2 29.4 Q 30.65 30.55 27.65 30.75 L 27.5 30 Q 30.75 28.25 31.4 27 L 31.5 26.8 L 30.8 27.45 L 29.5 28.4 Q 28.95 28.9 26.75 29.5 L 23.5 30.25 L 22.85 29.7 L 22.75 29.35 Q 22.75 28.85 23 28.6 L 23.65 28.45 Q 23.2 28.2 23.1 27.75 L 23.35 27.25 L 24.75 27.35 Q 25.85 26.65 26.6 25.6 L 27.3 22.15 Q 25.85 24.6 23.75 27 L 23.6 27 L 23.2 27.4 Q 22.1 28.75 19.6 29.25 Q 19.4 29.3 19.4 28.65 L 20.85 27.25 L 20.95 27.15 Q 18.6 28.3 17.5 29 L 12 30.25 L 11.5 29.95 L 3.85 30.5 L 0.05 30.35 L -0.05 30 L -0.25 30 Q -1 30.75 -1.75 30.75 L -6.7 30.15 Q -9.25 29.8 -11.75 30.6 L -12.35 30.1 L -12.55 29.7 L -12.5 29.55 L -20.5 29.75 L -20.85 29.65 L -21 29.15 L -21 28.9 L -22.05 28.8 L -25.25 29 L -27.6 28.8 L -30.05 28.5 Q -29.45 28.3 -29.45 28.05 L -29.45 27.75 Q -29.1 27.6 -24.75 27.8 L -25.25 27.25 L -24.5 27.4 L -19.05 26.6 L -19.55 26.55 L -23.9 26.5 L -24 26.15 L -23.65 25.75 L -15.1 25.6 L -16.5 24.6 L -16.4 24.25 L -16.25 24 Q -15.55 24 -15.3 24.25 L -15.9 24.5 L -13.8 25.25 L -12.45 25.55 L -12.05 25.55 L -9.8 25.25 L -10.6 25.5 L -8.75 25.5 L -3.9 24.7 L -2.8 24.5 Q -2.45 24 -1.1 23.7 L 1.15 23.25 L 5.25 22.4 Q 4.45 23 2.75 23.6 L 7.85 23.25 Q 13.1 22.9 14.25 21.65 Q 13.3 23.15 9.65 23.75 L 1 24.75 L -4.45 25.8 L -10.5 26.25 L -11.4 26.25 L -12 26.3 L -14.5 26.6 L -17.25 27.15 L -11.75 27.25 Q -10.75 27.25 -9.75 27.75 L -9.45 27.8 L -9 27.75 L -5.55 28.25 L -6.6 28.45 L 1 28.5 L 1.4 29 L 6.85 28.75 L 8.5 28.65 L 10.25 28.4 L 11.15 28.2 L 11 28.1 Q 11 27.7 11.5 27.5 L 12.35 27.35 L 4.9 27.35 L 3.35 27.5 L 0.5 28 L -2.25 27.75 L -3.25 26.5 L -3 26.15 L -2.05 26.6 L 0.25 26.85 L 0.9 26.75 L 0.1 26.4 L 2.5 26.45 L 5.65 26 L 3.85 26 L 4.1 25.65 L 9.65 25.15 L 16.3 24.7 Q 15.6 24.35 15.6 23.65 L 16 23.5 L 16.5 24 L 18.15 24 L 20.8 22.3 L 22.75 21.15 L 20.75 23.25 L 19.2 24.25 L 20.25 24.15 Q 18.65 26 10.95 26.15 L 12.5 26.5 L 15.85 26.5 Q 19.45 25.4 22.7 23.55 L 23.55 23.05 L 23.85 22.4 L 25.25 19.4 Q 25.75 18.3 26.35 17.7 Q 27.15 16.9 27.15 18.4 L 27 19.2 L 27.65 18 L 27.75 17.85 L 28.9 7.9 L 29.05 5.55 L 28.85 6.65 L 28.75 6.75 Q 28.5 6.1 28.5 4.6 Q 28 8.15 26.6 12 L 26.25 12 Q 26.1 12.3 26.1 11.65 L 27.25 6.9 Q 28.35 2.25 28.35 -0.25 L 28.5 -0.25 L 28.55 -0.05 L 28.95 -3.2 L 28.9 -3.65 Q 28.9 -4.25 29.05 -4.6 L 29.1 -5.9 L 29.5 -12.2 L 29.4 -15.5 L 28.45 -7.55 L 27.1 1.9 L 27.1 1.95 Q 26.65 6.05 25.8 10.6 Q 24.15 19.25 21.85 20.5 L 20.6 22.25 L 20.35 22.25 L 21.2 20.7 L 20.75 20.65 L 22.15 18.25 Q 22.7 16.15 22.9 13.7 Q 23.05 8.45 23.45 5.75 L 23.25 5.65 L 23 5.4 L 23 3.9 L 24.45 -4.75 L 24.55 -5.1 Q 24.6 -9 24.95 -14.05 L 25.75 -24.8 L 26 -24.8 Q 26.5 -22.65 26.5 -20.25 L 26.45 -15.4 L 26.6 -15.4 L 27.35 -6.35 L 27.65 -9.05 L 29.1 -20.5 L 29.15 -20.5 L 29.1 -21.15 L 28.85 -21.25 L 29.1 -21.25 L 28.85 -24.25 L 29 -24.25 L 29.75 -20.9 Q 31 -19.45 31 -12.15 L 30.6 -5.9 L 31.05 -5.3 L 31 -6 L 31.9 -12 L 32.25 -18 L 32.6 -18 L 32.75 -17.85 L 32.75 -17.4 L 32.4 -9.55 Q 32 -5.7 31.55 -4.25 L 32.6 -0.5 Q 33.25 3.1 33.25 6.65 Q 33.25 10.2 32.25 13.3 L 32.05 17.8 Q 32.75 18.1 32.9 19.15 L 32.85 20.8 M 23.5 -19.3 L 24 -10.05 Q 24 -8.05 23.4 -2.25 L 22.9 2.1 Q 22.75 4.55 22.25 6.25 L 22.1 6.25 L 21.85 5.05 Q 21.85 3.85 22.55 -1 L 23.25 -19.3 L 23.5 -19.3 M 11.3 17.3 Q 5 22.05 -7.75 25.1 L -9.5 25.1 L -9.9 24.95 L -10.05 24.4 L -9.05 23.5 L -8 22.85 Q -7.7 22.85 -7.3 23.65 Q 4.25 20.9 10.75 15.9 Q 14.2 13.3 17.9 9.05 Q 18.15 4.95 18.85 -0.35 L 20.5 -14.25 L 20.85 -14.25 Q 21.25 -11.15 21.25 -8.6 L 20.8 -2.85 L 20 3 L 19.6 9.05 Q 19.35 12.75 18.6 14.4 Q 17.75 13.7 17.75 13.2 L 17.9 9.4 Q 15.2 14.35 11.3 17.3 M 30.7 0.1 L 30.3 -3.45 L 30.15 -2.4 L 30.35 -1 L 30.6 0.65 L 30.8 0.8 L 30.7 0.1 M 30.65 8.55 L 30.65 7.8 L 30.55 9.15 L 30.65 8.9 L 30.65 8.55 M 28.85 1.15 L 28.75 1.25 L 28.75 2.35 L 28.85 1.15 M 24.4 11.65 Q 25.1 8.4 25.5 2.65 L 25.7 -0.1 L 25 6 L 24.25 12.25 L 24.4 11.65 M 29.4 17.7 L 29.9 15.75 L 29.35 17.9 L 29.4 17.7 M 29.45 24.2 L 30.1 21.65 L 30.4 17.35 L 29.1 19.65 L 29.15 20.05 Q 29.15 23 28.5 24.65 L 27.4 26.55 L 27.25 26.75 L 27.2 26.75 L 26.35 27.45 Q 28.15 26.55 29.15 25.3 L 29.45 24.2 M 19.5 27.35 L 22.4 25.2 L 22.65 24.75 Q 21.95 25.1 21.2 25.55 L 22 25.4 Q 21.5 26.1 19.65 26.7 L 17.5 27.35 L 17.25 27.35 L 15.7 27.95 L 17.05 28.15 Q 18.7 27.85 19.5 27.35 M -17.5 24 L -17.15 24.05 Q -16.8 24.1 -16.75 24.25 L -16.8 24.4 L -19.65 24.95 L -22.25 25.25 L -24.3 25.15 L -26.4 25 L -26.5 24.6 L -17.5 24" stroke-linecap="round" />
</g>
		<g transform="matrix(1 0 0 1 -1.78 -1.71)"  >
<path style="stroke: none; stroke-width: 1; stroke-dasharray: none; stroke-linecap: butt; stroke-dashoffset: 0; stroke-linejoin: miter; stroke-miterlimit: 4; fill: rgb(125,141,172); fill-opacity: 0.5; fill-rule: evenodd; opacity: 1;" vector-effect="non-scaling-stroke"  transform=" translate(1.7, 1.5)" d="M 22.6 -30.65 L 22.5 -30.55 Q 25.4 -30.25 26 -29.75 L 26 -29.4 L 25.75 -29.25 L 20.55 -29.9 L 20.6 -29.9 L 20.5 -29.8 L 7.95 -30.15 L 8.75 -30 L 8.65 -29.65 L -5.5 -29.9 L -10.05 -29.95 L -10.1 -29.95 L -14.65 -29.5 L -14.9 -29.45 L -22.25 -27 L -25.75 -26 Q -27.8 -25.25 -28.8 -23.8 Q -29.75 -22.5 -32.25 -19.7 L -32.5 -16.55 L -32.5 -14.65 Q -32.2 -17.75 -31.4 -19.05 L -30.8 -20.4 L -30.8 -20.75 L -30.65 -20.75 L -30.65 -20.7 L -30.15 -21.25 L -30.6 -19.8 L -30.5 -16.15 L -31.05 -10.4 L -30.85 -6.75 L -31.1 -2.1 L -31 4.95 L -31.15 6.25 L -31.5 5.95 L -31.8 15.15 Q -32.45 14.7 -32.5 13.3 L -32.55 15.25 Q -32.25 16.45 -32.25 17.25 L -32.15 18 L -31.8 18 L -30.75 22.75 Q -30.75 23.5 -30.9 24 L -30.85 24.7 Q -30.7 26.3 -30.25 27.25 L -30.3 27.65 L -30.7 27.9 L -30.65 28 Q -30.8 28.35 -31.25 28.5 L -31.35 28.35 L -31.75 28.4 Q -32.45 28.4 -32.9 27.5 L -32.5 28.3 Q -32 29.05 -32 29.4 L -32.05 29.95 L -32.3 30 L -34 27.85 L -35 25.75 L -34.75 25.25 L -34.5 25.15 L -33.4 26.3 L -33.9 23.9 L -34.35 22.5 L -34.5 19.9 L -35 14.85 L -34.9 13.5 L -34.55 13.5 L -34.2 17.4 Q -34.15 15.05 -33.75 14.5 L -33.35 15.15 L -33.5 9.4 L -33.45 4.55 L -33.35 3.7 L -33.75 -2.3 L -33.7 -4.5 L -33.8 -5 L -33.7 -5 L -33.5 -8.75 L -33.75 -10.55 Q -33.75 -17.2 -33.4 -19.8 L -33.75 -21.9 L -33.75 -21.95 L -33.8 -22.55 L -33.5 -24.4 L -33.15 -25.3 Q -32.65 -26.7 -33.05 -26.15 L -32.2 -26.95 L -31.6 -27.4 L -31.35 -27.85 Q -30.1 -29.7 -28.25 -31 L -27.2 -30.8 Q -25.7 -31.45 -24.05 -31.6 L -21.55 -32.35 Q -19.3 -32.8 -16.65 -31.9 L -11.05 -32.3 L -1.25 -32.5 L 0.25 -32.55 L 5.75 -33 L 12.25 -32.7 Q 15.3 -33 17.9 -32.8 L 28.1 -32 L 28.85 -31.65 L 28.75 -31.55 L 28 -31.4 L 27.65 -31.4 L 31.5 -30.8 L 31.6 -30.65 L 31.25 -30.3 L 28.6 -30.6 L 24.45 -30.95 L 24.1 -30.9 L 22.75 -30.75 L 21.45 -30.75 L 22.6 -30.65 M 21.5 -30.05 L 20.4 -30.1 L 20.35 -30.05 L 21.5 -30.05 M 3.5 -29.55 L 14.3 -29 L 22.35 -28.15 L 22.25 -28.05 L 20.5 -27.8 L 3.35 -29.4 L 3.5 -29.55 M 19.75 -31.9 L 17.25 -32.05 L 23.9 -31.35 L 26.05 -31.45 L 19.75 -31.9 M 6.9 -31.55 L 4.3 -31.7 L 4.35 -31.65 L 4.25 -31.6 L 6.75 -31.5 L 6.9 -31.55 M 11.85 -31.65 L 11.85 -31.6 L 16.6 -31.2 L 16 -31.35 L 4 -32 L 4.2 -31.8 Q 6 -32 11.05 -31.65 L 11.85 -31.65 M 7.2 -31 L 0.25 -31 L -4.1 -30.55 L 4.5 -30.65 L 4.5 -30.75 L 11.45 -30.75 L 7.2 -31 M -4 -26.8 L 0.85 -26.65 L 0.75 -26.55 L -4.05 -26.65 L -4 -26.8 M -8 -28.75 L -5.45 -28.75 L -8 -28.8 L -16.1 -27.75 L -21.05 -26.75 L -15.7 -28.35 L -8 -29.5 L 5.3 -29 Q 7.2 -28.4 10 -28 L 10.6 -27.9 L 4.15 -28.3 L 3.05 -28.25 L 1.5 -28.15 L -8.3 -28.05 L -10.9 -27.6 L -13.25 -27.05 L -13.35 -27.05 L -18.95 -25.85 L -21.7 -25.3 Q -22.95 -24.85 -26.3 -22.9 L -25.2 -23.3 L -26.55 -22.3 L -25.9 -23.75 L -25.4 -24.1 Q -23.05 -25.55 -21.5 -26.05 L -16.95 -27.2 L -12.65 -27.75 L -12.45 -27.65 L -10.55 -28.25 L -8 -28.75 M 12.45 -31.15 L 15.75 -30.85 L 15.75 -30.9 L 19.4 -30.75 L 12.45 -31.15 M 16.4 -30.3 L 16.45 -30.3 L 16.85 -30.25 L 16.4 -30.3 M -18.45 -30.75 L -16.15 -31.05 L -17 -31.1 L -18.45 -30.75 M -20.35 -31.2 L -24.25 -30.55 L -25.9 -29.9 L -25.6 -29.65 L -25.1 -29.8 L -24.25 -30.05 L -24.25 -30.25 L -23.8 -30.15 L -18.85 -31.2 L -18.55 -31.25 L -18.8 -31.4 L -18.65 -31.45 L -20.35 -31.2 M -8.05 -31.15 L -7.9 -31.15 L -13.5 -31 L -15.45 -31.05 L -18.25 -30.7 L -18.9 -30.6 L -18.05 -30.4 L -18.25 -30.3 L -19.55 -30.45 L -20.3 -30.25 L -16.1 -30.3 L -15.25 -30.5 L -10.85 -30.9 L -8.1 -31.1 L -8.05 -31.15 M -4.25 -30.5 L -4.55 -30.5 L -4.05 -30.5 L -4.25 -30.5 M -31.3 -24.85 L -31.3 -24.75 L -30.3 -26.1 L -31.15 -25.55 L -31.3 -24.85 M -25.1 -28.3 L -25.9 -28.15 L -27.35 -27.45 Q -29.1 -26.3 -30.7 -23.95 L -32.05 -21.85 L -32.05 -21.65 L -32.1 -20.95 Q -31.15 -24.2 -25.1 -28.3 M -27.35 -29.45 Q -28.6 -29 -29.6 -28.1 L -26.8 -29.25 L -27.05 -29.55 L -27.35 -29.45 M -24.3 -27.75 L -24.55 -27.5 Q -22.55 -28.05 -21.8 -28.5 L -22 -28.7 L -23.55 -28.5 Q -24.05 -27.85 -24.3 -27.75 M -24.25 -28.85 L -24.05 -28.95 L -24.35 -28.8 L -24.25 -28.85 M -29.15 -15.75 L -28.9 -14.9 L -29 -13.55 Q -29.5 -15.15 -28.95 -17.6 L -27.5 -22.05 L -27.4 -22 L -27.6 -21.55 Q -28.65 -18.85 -28.75 -17.35 L -29.15 -15.75 M -26.75 -24.9 Q -26.65 -25.05 -26.65 -24.4 L -27 -22.95 L -26.95 -23 L -27.25 -22.4 L -27.55 -23 Q -28.1 -22.6 -29.1 -19.65 L -30.05 -16.4 L -30.05 -16.5 L -30.15 -16.45 L -29.75 -20.9 L -29.2 -22.15 L -28.5 -23.25 L -28 -24.25 Q -27.55 -24.85 -26.75 -24.9 M -30.05 -9.75 L -30.2 -8.45 L -30.3 -10.85 L -30.15 -13.2 L -30.05 -14.9 Q -29.75 -13 -29.25 -12.65 L -29.05 -12.7 L -29.5 -6.05 L -29.9 -12.5 L -30.05 -12.5 L -30.05 -9.75 M -33 -22.25 L -32.9 -22.15 Q -32.45 -22.6 -32.25 -23.9 L -32.75 -23.4 L -32.85 -23.4 L -33 -22.25 M -32.9 -21.05 L -32.8 -21.4 L -32.9 -21.4 L -32.9 -21.15 L -32.9 -21.05 M -32.8 -18.3 L -33.05 -18.15 L -33.05 -18.3 L -33.25 -12.6 L -32.4 -21.2 L -32.85 -20.1 L -32.8 -18.3 M -31.05 -14.5 L -30.85 -19.05 L -31.25 -17.75 L -31.05 -14.5 M -31.25 -13.4 L -31.3 -13.5 L -31.25 -11.3 L -31.2 -12.5 L -31.25 -13.4 M -30.75 -4.9 L -30.75 -5.7 L -30.65 -4.9 L -30.75 -4.9 M -32.9 -5.75 L -33.05 -2.55 L -33 -2.4 L -32.55 -0.5 L -32.65 -4.5 L -32.75 -8.2 L -32.9 -5.75 M -29.55 -4.5 L -29.55 -4.45 L -29.5 -5.4 L -29.55 -4.5 M -29.25 -2.15 L -29.3 -1.05 L -29.55 -2.6 L -29.25 -2.15 M -29.75 1.65 L -29.75 12.35 L -29.55 12.9 L -29.9 14.75 Q -30.05 5.4 -30.5 0.4 L -30.2 -1.9 L -30.25 -1.3 Q -30.25 -0.15 -30.05 0.15 L -29.8 0.15 L -29.75 -0.7 L -29.35 -0.85 L -29.75 1.65 M -33.1 -1.4 L -33.15 2.4 L -32.55 0.05 L -33.1 -1.4 M -30.8 11.4 L -30.75 11.4 L -30.8 11.8 L -30.8 11.4 M -29.75 23.25 L -29.8 23.65 L -29.9 23.75 L -30.05 23.75 L -31.25 17.4 L -31 17.25 Q -30.75 17.4 -30.75 17.75 L -30.65 17.75 L -30.7 15.1 L -30.15 16.8 L -29.75 23.25 M -32.8 19 L -33.05 19.1 L -33.25 16.95 L -33.1 22.2 L -32.95 23.25 L -32.9 22.6 L -32.65 22.6 L -31.7 25.75 L -31.85 24.75 L -32.15 22.25 L -32.15 22.05 L -32.25 21.6 L -32.75 18.75 L -32.8 19" stroke-linecap="round" />
</g>
		<g transform="matrix(1 0 0 1 0 0.14)"  >
<path style="stroke: none; stroke-width: 1; stroke-dasharray: none; stroke-linecap: butt; stroke-dashoffset: 0; stroke-linejoin: miter; stroke-miterlimit: 4; fill: rgb(118,134,163); fill-rule: evenodd; opacity: 1;" vector-effect="non-scaling-stroke"  transform=" translate(-0.08, -0.35)" d="M 33.05 -28.05 Q 33.15 -27.2 33.6 -26.3 L 34 -26.65 Q 35.55 -25.05 36.25 -21.45 L 36.55 -18.45 Q 36.6 -15.15 36.25 -10.6 L 36.05 -8.9 Q 35.2 -1 33.05 2.8 L 31.85 2.8 L 33.05 -9 L 32.95 -9 L 33.6 -16.2 Q 33.15 -18.35 33.05 -21.2 L 32.7 -25.15 L 32.65 -25 Q 32.05 -19.55 32.7 -18.75 Q 29.75 -18.95 30.5 -22.9 Q 30.8 -26.45 30.15 -28.3 L 30.1 -28.35 L 29.7 -29.2 L 28.65 -29.55 L 28.1 -29.85 Q 27.85 -29.9 27.6 -30.05 L 27.45 -30.1 L 24.05 -30.4 L 22.25 -30.6 L 20.25 -30.6 L 19.8 -30.9 L 19.45 -30.9 L 19.1 -31.05 L 17.85 -31.15 L 17.75 -31.8 L 17.35 -32.35 L 21.3 -32.85 L 22.35 -32.6 L 27.2 -32.6 L 28.55 -32.35 L 29.1 -31.95 L 30.1 -31.35 L 30.4 -31.25 Q 31.4 -30.9 32.05 -30.4 L 32.4 -30.05 L 32.7 -29.55 L 32.9 -28.9 L 32.8 -28.05 L 33.05 -28.05 M 32.45 -26.7 L 32.4 -27.7 L 32.05 -27.65 L 32.45 -26.7 M -19.5 -30.55 L -24.75 -31.15 Q -28.85 -32 -29.65 -32.8 L -26.55 -32.75 L -17.45 -33.1 L -13.1 -33.45 L -8.45 -34.15 L 1.45 -34.35 L 13.35 -33.85 L 14.65 -33.55 Q 16.05 -33.15 16.2 -32.85 L 15.75 -32.45 L 1.15 -31.55 L -9.9 -30.75 L -15.35 -31.05 L -19.5 -30.55 M -34.15 26.15 Q -33.45 27.4 -31.4 28.25 L -29.35 29.1 L -27.4 29.7 Q -26.45 30.15 -25.8 30.55 L -19.6 30.25 Q -12.8 29.9 -9 30.25 L -8.75 30.15 L -7.85 30 L -7.85 29.9 L -7.85 29.7 L -7.75 28.75 L -7.75 28.85 L -6.8 28.85 L -6.6 29.7 L -6.6 29.85 L -5.2 30 L -4.05 30.15 L 1.4 30.8 L 18.05 29.7 L 19.35 29.65 L 20.6 30.25 L 21.85 31.05 Q 22.45 30.7 23.3 30.4 L 25.55 29.7 L 28.9 29.4 L 30.6 29.65 L 30.65 29.65 Q 30.8 28.7 31.7 27.85 Q 32.45 26.15 33.6 25.65 Q 33.5 25.1 34 24.5 L 34.7 21.9 Q 34.8 21.05 33.9 15 Q 32.95 8.8 33.15 8 Q 32.65 5.75 33.05 4.05 Q 33.4 1.1 36.25 0.4 L 36.95 0.2 Q 36.55 1.3 36.25 2.8 Q 35.75 4.9 35.5 7.85 Q 35.35 8.65 36.25 13.4 Q 36.85 18.1 36.7 18.9 L 36.25 22 L 35.4 26.3 L 33.5 26.95 L 31.75 29.7 L 31.7 29.9 Q 32.95 30.15 33.35 30.55 L 30.1 32.85 L 29.55 33.45 L 27.55 35.05 L 19 32.35 L 11.3 33.15 L 11.95 34 L 11.6 34.3 L 10.25 34.3 L 5.5 33.85 L 2.1 34.3 L -0.5 34 L -1 33.15 L -6.65 32.6 L -7.7 32.05 L -7.75 31.7 L -9.95 31.95 Q -13.7 33.45 -19.9 33.55 L -31 33.2 L -31.25 30.8 L -29.35 30.8 L -31 29.7 L -31.15 29.65 L -31.4 29.5 Q -34.8 28.15 -34.75 27.05 L -34.7 26.1 L -34.25 26.15 L -34.15 26.15 M 32.3 5.15 Q 31.75 8.7 32.3 16.1 Q 32.05 17.75 31.25 19.9 L 30.1 20.1 L 29.7 15.75 Q 29.45 13 29.55 11.95 Q 29.6 9.75 30.1 8.05 Q 30.85 6.35 32.3 5.15 M -26.75 -28.15 Q -27.35 -28.1 -28.35 -29.5 Q -30.4 -28.35 -31.4 -26.3 Q -32.3 -25.3 -32.65 -24.1 Q -33.8 -20.95 -32.05 -18.45 L -34.45 -18.9 Q -35.7 -19.25 -35.7 -19.9 L -35.7 -22.05 Q -35.7 -25.85 -33.2 -28.85 L -32.65 -29.55 L -32.3 -30.05 L -31.95 -30.4 L -31.4 -30.85 Q -30.85 -31.45 -30.2 -31.4 Q -29.45 -31.45 -28.55 -30.4 L -28.25 -30.05 L -27.85 -29.55 L -26.75 -28.15 M -33 -17.45 Q -33.2 -13.45 -32.55 -4.75 L -32.9 -2.9 Q -32.55 0.1 -32.55 5.85 Q -32.65 8.85 -35.15 25.5 L -35.9 25.45 Q -36.8 22.75 -36.8 20.8 Q -35.7 12.5 -35.7 8.25 L -36.25 1.85 Q -34.4 -0.2 -33.8 -2.85 Q -35.3 -9.05 -35.15 -10.7 Q -35.3 -11.5 -34.45 -13.9 Q -33.65 -16.4 -33.65 -17.45 L -33 -17.45" stroke-linecap="round" />
</g>
</g>
</g>
<g transform="matrix(1 0 0 1 275 203)"  >
<g style="" vector-effect="non-scaling-stroke"   >
		<g transform="matrix(1 0 0 1 0 -2.15)"  >
<path style="stroke: none; stroke-width: 1; stroke-dasharray: none; stroke-linecap: butt; stroke-dashoffset: 0; stroke-linejoin: miter; stroke-miterlimit: 4; fill: rgb(0,0,0); fill-rule: evenodd; opacity: 1;" vector-effect="non-scaling-stroke"  transform=" translate(-0.02, 159.85)" d="M 59.85 -236.6 L 63.25 -236.9 L 83.1 -236.95 L 85.45 -237.25 L 96.85 -237.25 L 100.9 -237.75 L 114.1 -238.4 L 117.25 -238.35 L 120.85 -238.1 Q 126.6 -239.1 136.35 -236.65 Q 148.1 -233.9 148.1 -229.05 L 148.1 -229 L 148.25 -228.1 L 148.9 -225.25 L 148.7 -221.95 L 148.5 -210.2 L 148.5 -194.15 L 147.85 -185.5 L 148.2 -176.85 L 148.3 -174.65 L 148.25 -173.85 Q 148.05 -173.25 148 -172.35 Q 148.6 -170.75 148.65 -168.4 L 148.65 -162.95 L 149.3 -152.25 L 148.25 -131.5 L 147.85 -126.5 L 147.65 -124.25 L 147.65 -116.85 Q 147.35 -114.7 147.35 -113.2 L 147.45 -111.1 Q 147.2 -109.65 147.1 -107.95 Q 146.5 -104.1 146.25 -101.05 L 146.35 -100.45 L 146.05 -88.15 L 146.2 -87.75 Q 146.1 -87.6 146.3 -87.3 Q 146.3 -87.2 146.6 -87.15 L 146.75 -86.55 L 146.6 -85.85 L 146.55 -85.5 L 146.35 -85.15 L 146.3 -85.15 Q 146 -84.65 146.05 -84.3 Q 146 -83.1 143.95 -81.1 Q 141.95 -79.3 141.25 -79.25 L 138.4 -79.35 Q 137.2 -80.2 137.25 -82.3 Q 137.5 -84.55 137.35 -85.2 Q 136.9 -87 136.8 -88.65 L 136.6 -88.7 L 132.65 -89.45 Q 113.15 -92.95 93.95 -91 L 79.5 -89.9 L 58.65 -89 L 29.95 -90.1 Q 15 -91.1 0.4 -90.5 L -15.1 -89.25 L -19.1 -88.75 L -41.15 -86.75 L -41.25 -86.7 L -41.3 -86.7 L -43.6 -86.65 L -47.75 -86.9 L -47.7 -86.8 L -49.7 -86.9 L -49.7 -86.95 L -50.5 -86.9 L -69.45 -86.2 L -82.7 -86.7 L -95.2 -88.7 L -101.25 -89.95 Q -106.5 -91 -111 -91.1 L -123.45 -90.5 L -132.4 -89.5 L -132.15 -88.45 L -130.85 -84.45 L -130.55 -84.4 L -130.3 -83.7 L -130.4 -83.4 L -130.3 -83.05 L -130.4 -82.85 L -131.05 -82.7 L -132.7 -81.75 Q -135.1 -80.85 -136.65 -80.9 Q -138.55 -81.1 -141.4 -82.75 Q -144.25 -84.45 -145.05 -85.8 Q -145.7 -86.75 -145.95 -88.6 L -146.5 -91.4 L -146.25 -93.05 L -146.25 -93.55 L -146.2 -99.35 L -147.1 -107.15 Q -147.75 -110.15 -147.85 -113.65 L -148 -124.25 L -148.3 -145.4 L -148.4 -150.9 L -148.3 -152.45 Q -146.7 -180.95 -146.6 -188.45 Q -146.7 -198.85 -147.95 -211.05 Q -149.3 -223.4 -149.25 -226.3 L -149.2 -228.85 Q -149.15 -230.05 -148.8 -230.55 L -148.65 -230.75 L -148.6 -231.3 L -147.85 -232.4 Q -145.85 -235.2 -139.55 -235.9 L -137.95 -236.3 Q -129.25 -236.3 -129.2 -236.45 L -109.6 -235 L -108.55 -235 L -100.1 -234.15 L -86.95 -234.95 L -86.95 -235.15 L -80.65 -235 L -80.55 -235.15 L -80.4 -235 L -73.1 -235.75 L -62.05 -237.2 L -62 -237.2 L -51.15 -238.7 L -31.5 -240.15 L -27.65 -240.45 L -27.5 -240.45 L -12.9 -240.4 L -12.35 -240.3 L -3.7 -240.2 L -1.4 -240.3 L 5.6 -239.8 L 46.3 -236.6 L 59.85 -236.6 M 69.9 -234.25 L 46.3 -234.3 L 7.7 -237.15 L -2.85 -237.85 L -11.6 -238 L -12.7 -238.25 L -27.6 -238.15 L -41.85 -237.2 L -47.6 -236.85 L -48.75 -236.65 L -59.3 -235.05 L -76 -232.7 L -80.9 -232.75 L -97.25 -232.2 L -102.85 -232.3 L -107.55 -232.65 L -112.2 -232.9 L -113.3 -232.9 L -120.55 -233.45 L -127.05 -234.1 L -139.4 -233.9 L -140.8 -233.65 L -140.9 -233.75 L -142.25 -233.3 Q -143.95 -233.5 -144.65 -232.6 L -145.8 -231.85 L -146.15 -231.25 L -146.3 -231.2 L -146.75 -230.6 L -147.15 -229.35 L -146.95 -228.85 L -146.5 -228.75 L -146.45 -228.75 L -146.35 -228.05 L -145.65 -227.3 L -143.25 -226.95 L -138.05 -227.9 Q -137.55 -228.75 -135.4 -228.8 Q -134.55 -228.45 -134.4 -227.3 L -134.45 -225.35 L -135.1 -211.9 L -135.05 -209.1 L -135.15 -201.3 L -135.1 -200.75 L -134.2 -193.6 L -133.4 -184.15 L -132.45 -174.95 L -132.45 -165.25 L -132.45 -162.6 L -133.1 -151.9 L -133.1 -150.5 L -133.1 -149.1 L -133.05 -148.85 L -133.05 -148.8 L -132.95 -148.45 L -132.9 -148.3 L -133.05 -146.05 L -133.1 -144.75 L -132.9 -143.7 L -133.15 -143.5 L -133.05 -136.95 L -133.15 -135.05 L -132.85 -124.6 L -132.9 -117.75 L -133.1 -108.15 L -133.05 -103.85 L -133.05 -94.15 L -132.7 -90.85 L -131.25 -91.65 L -131.15 -91.4 L -129.7 -91.65 L -112.7 -92.85 Q -108 -93.05 -97.5 -91.1 L -83 -88.65 L -68.5 -88.05 L -55.4 -88.75 L -40.9 -89.2 L -40.3 -89.1 L -39.25 -89.1 L -25.75 -90.35 L -15.1 -91.4 L 11.05 -92.75 L 39 -91.4 L 58.65 -90.7 L 78.65 -91.75 L 93.95 -92.9 L 100.8 -93.2 Q 118.75 -95 136.6 -90.4 L 136.65 -90.4 L 136.6 -90.85 L 136.05 -108.9 L 135.65 -109.45 L 137.85 -144.45 L 137.85 -145.1 Q 138.4 -157.95 137.9 -170.55 L 137.85 -171.05 L 137.9 -174.1 L 137.75 -177.95 Q 137.7 -182.9 139.45 -193.95 Q 141 -205.05 141 -211.45 Q 140.65 -214.75 140.65 -216.3 L 140.1 -218.65 Q 139.6 -220.15 139.65 -221 Q 139.6 -222.7 142.3 -223.3 L 143.8 -224.45 L 144.3 -224.6 L 144.7 -225.25 Q 146 -227.4 146 -228.25 Q 145.95 -230.7 142.2 -232.5 L 135.05 -234.45 L 132.55 -234.95 L 132.4 -235 L 132.25 -235 L 127.7 -235.95 L 121.55 -236.4 Q 115.25 -236.7 105.45 -236.05 L 88.3 -234.8 L 86.4 -234.75 L 71.2 -234.2 L 70.55 -234.25 L 69.9 -234.25 M 142.85 -215.9 L 143.15 -211.5 Q 143.15 -203.95 141.7 -192.8 Q 140.65 -186.4 140.35 -182.45 L 140.45 -180.65 L 140 -177.5 L 140.2 -170.55 Q 140.95 -157.5 140.4 -144.45 Q 139.1 -129.4 138.5 -114.35 Q 138.15 -105.9 138.95 -97.5 L 139.25 -95.5 L 139.25 -95.2 L 139.05 -90.75 L 139.1 -89.2 L 139.3 -86.2 L 139.5 -81.7 L 139.5 -81.55 Q 142.45 -81.95 143.9 -84.15 Q 144.4 -85.35 144.95 -85.9 L 144.9 -86.25 L 144.4 -88.8 L 144.1 -89.65 Q 143.85 -91.5 144.05 -93.25 Q 143.75 -93.6 143.85 -94.3 Q 143.85 -96.6 144.85 -104.6 L 145.15 -107.4 L 145.8 -112 L 145.75 -112.35 L 146.55 -132.45 Q 146.55 -136.35 147.05 -144.4 L 147.35 -152.1 L 146.75 -167.75 Q 145.8 -178.65 145.85 -185.5 Q 145.8 -185.9 146.5 -194.8 L 146.45 -210.5 Q 146.75 -218.45 146.95 -219.9 Q 146.7 -222.15 146.8 -223.85 Q 145.6 -222.8 142.55 -221 L 142 -220.35 L 142.3 -218.5 L 142.85 -215.9 M -136.25 -226.8 L -136.75 -226.7 L -137.6 -226.15 Q -140.05 -224.95 -142.5 -224.95 Q -146 -225.1 -147.4 -226.15 L -147.6 -226.2 L -147.65 -225.4 L -146.1 -209.55 Q -144.9 -198.3 -144.9 -188.4 L -145.5 -167.05 L -146 -161.65 L -146.35 -156.2 L -146.85 -149.45 L -146.7 -144.9 L -146.35 -130 Q -146.4 -126 -146.05 -117.95 L -145.65 -112 L -145.35 -108.95 Q -145 -107.2 -144.75 -104.45 L -144.6 -95.75 L -144.65 -91.85 L -144.75 -90.7 L -144.25 -88.2 Q -143.9 -86.6 -140.55 -84.7 Q -137.8 -83.25 -136.7 -83.15 Q -134.65 -83.05 -133.25 -83.7 L -132.7 -84 L -133.45 -85.7 Q -134.35 -88.1 -134.5 -90.35 L -134.75 -97.6 L -134.65 -105.25 L -134.85 -109.45 L -135.2 -112.55 L -134.95 -113.45 L -134.75 -118.85 L -135.1 -130.85 Q -135.1 -134.7 -134.8 -136.6 L -134.8 -136.65 L -134.95 -141.25 L -134.75 -146.45 L -135 -147.6 Q -135 -150.55 -134.4 -156.8 L -134.45 -156.85 L -134.45 -174.45 L -135.85 -189.95 Q -137.3 -205.05 -137.3 -207.8 L -137.25 -210.35 L -137 -211.25 L -137 -211.85 L -136.25 -223.8 L -136.25 -226.8" stroke-linecap="round" />
</g>
		<g transform="matrix(1 0 0 1 -0.17 -2.2)"  >
<path style="stroke: none; stroke-width: 1; stroke-dasharray: none; stroke-linecap: butt; stroke-dashoffset: 0; stroke-linejoin: miter; stroke-miterlimit: 4; fill: rgb(214,204,164); fill-rule: evenodd; opacity: 1;" vector-effect="non-scaling-stroke"  transform=" translate(0.15, 159.9)" d="M 69.9 -234.25 L 70.55 -234.25 L 71.2 -234.2 L 86.4 -234.75 L 88.3 -234.8 L 105.45 -236.05 Q 115.25 -236.7 121.55 -236.4 L 127.7 -235.95 L 132.25 -235 L 132.4 -235 L 132.55 -234.95 L 135.05 -234.45 L 142.2 -232.5 Q 145.95 -230.7 146 -228.25 Q 146 -227.4 144.7 -225.25 L 144.3 -224.6 L 143.8 -224.45 L 142.3 -223.3 Q 139.6 -222.7 139.65 -221 Q 139.6 -220.15 140.1 -218.65 L 140.65 -216.3 Q 140.65 -214.75 141 -211.45 Q 141 -205.05 139.45 -193.95 Q 137.7 -182.9 137.75 -177.95 L 137.9 -174.1 L 137.85 -171.05 L 137.9 -170.55 Q 138.4 -157.95 137.85 -145.1 L 137.85 -144.45 L 135.65 -109.45 L 136.05 -108.9 L 136.6 -90.85 L 136.65 -90.4 L 136.6 -90.4 Q 118.75 -95 100.8 -93.2 L 93.95 -92.9 L 78.65 -91.75 L 58.65 -90.7 L 39 -91.4 L 11.05 -92.75 L -15.1 -91.4 L -25.75 -90.35 L -39.25 -89.1 L -40.3 -89.1 L -40.9 -89.2 L -55.4 -88.75 L -68.5 -88.05 L -83 -88.65 L -97.5 -91.1 Q -108 -93.05 -112.7 -92.85 L -129.7 -91.65 L -131.15 -91.4 L -131.25 -91.65 L -132.7 -90.85 L -133.05 -94.15 L -133.05 -103.85 L -133.1 -108.15 L -132.9 -117.75 L -132.85 -124.6 L -133.15 -135.05 L -133.05 -136.95 L -133.15 -143.5 L -132.9 -143.7 L -133.1 -144.75 L -133.05 -146.05 L -132.9 -148.3 L -132.95 -148.45 L -133.05 -148.8 L -133.05 -148.85 L -133.1 -149.1 L -133.1 -150.5 L -133.1 -151.9 L -132.45 -162.6 L -132.45 -165.25 L -132.45 -174.95 L -133.4 -184.15 L -134.2 -193.6 L -135.1 -200.75 L -135.15 -201.3 L -135.05 -209.1 L -135.1 -211.9 L -134.45 -225.35 L -134.4 -227.3 Q -134.55 -228.45 -135.4 -228.8 Q -137.55 -228.75 -138.05 -227.9 L -143.25 -226.95 L -145.65 -227.3 L -146.35 -228.05 L -146.45 -228.75 L -146.5 -228.75 L -146.95 -228.85 L -147.15 -229.35 L -146.75 -230.6 L -146.3 -231.2 L -146.15 -231.25 L -145.8 -231.85 L -144.65 -232.6 Q -143.95 -233.5 -142.25 -233.3 L -140.9 -233.75 L -140.8 -233.65 L -139.4 -233.9 L -127.05 -234.1 L -120.55 -233.45 L -113.3 -232.9 L -112.2 -232.9 L -107.55 -232.65 L -102.85 -232.3 L -97.25 -232.2 L -80.9 -232.75 L -76 -232.7 L -59.3 -235.05 L -48.75 -236.65 L -47.6 -236.85 L -41.85 -237.2 L -27.6 -238.15 L -12.7 -238.25 L -11.6 -238 L -2.85 -237.85 L 7.7 -237.15 L 46.3 -234.3 L 69.9 -234.25 M -136.25 -226.8 L -136.25 -223.8 L -137 -211.85 L -137 -211.25 L -137.25 -210.35 L -137.3 -207.8 Q -137.3 -205.05 -135.85 -189.95 L -134.45 -174.45 L -134.45 -156.85 L -134.4 -156.8 Q -135 -150.55 -135 -147.6 L -134.75 -146.45 L -134.95 -141.25 L -134.8 -136.65 L -134.8 -136.6 Q -135.1 -134.7 -135.1 -130.85 L -134.75 -118.85 L -134.95 -113.45 L -135.2 -112.55 L -134.85 -109.45 L -134.65 -105.25 L -134.75 -97.6 L -134.5 -90.35 Q -134.35 -88.1 -133.45 -85.7 L -132.7 -84 L -133.25 -83.7 Q -134.65 -83.05 -136.7 -83.15 Q -137.8 -83.25 -140.55 -84.7 Q -143.9 -86.6 -144.25 -88.2 L -144.75 -90.7 L -144.65 -91.85 L -144.6 -95.75 L -144.75 -104.45 Q -145 -107.2 -145.35 -108.95 L -145.65 -112 L -146.05 -117.95 Q -146.4 -126 -146.35 -130 L -146.7 -144.9 L -146.85 -149.45 L -146.35 -156.2 L -146 -161.65 L -145.5 -167.05 L -144.9 -188.4 Q -144.9 -198.3 -146.1 -209.55 L -147.65 -225.4 L -147.6 -226.2 L -147.4 -226.15 Q -146 -225.1 -142.5 -224.95 Q -140.05 -224.95 -137.6 -226.15 L -136.75 -226.7 L -136.25 -226.8 M 142.85 -215.9 L 142.3 -218.5 L 142 -220.35 L 142.55 -221 Q 145.6 -222.8 146.8 -223.85 Q 146.7 -222.15 146.95 -219.9 Q 146.75 -218.45 146.45 -210.5 L 146.5 -194.8 Q 145.8 -185.9 145.85 -185.5 Q 145.8 -178.65 146.75 -167.75 L 147.35 -152.1 L 147.05 -144.4 Q 146.55 -136.35 146.55 -132.45 L 145.75 -112.35 L 145.8 -112 L 145.15 -107.4 L 144.85 -104.6 Q 143.85 -96.6 143.85 -94.3 Q 143.75 -93.6 144.05 -93.25 Q 143.85 -91.5 144.1 -89.65 L 144.4 -88.8 L 144.9 -86.25 L 144.95 -85.9 Q 144.4 -85.35 143.9 -84.15 Q 142.45 -81.95 139.5 -81.55 L 139.5 -81.7 L 139.3 -86.2 L 139.1 -89.2 L 139.05 -90.75 L 139.25 -95.2 L 139.25 -95.5 L 138.95 -97.5 Q 138.15 -105.9 138.5 -114.35 Q 139.1 -129.4 140.4 -144.45 Q 140.95 -157.5 140.2 -170.55 L 140 -177.5 L 140.45 -180.65 L 140.35 -182.45 Q 140.65 -186.4 141.7 -192.8 Q 143.15 -203.95 143.15 -211.5 L 142.85 -215.9" stroke-linecap="round" />
</g>
		<g transform="matrix(1 0 0 1 47.51 77)"  >
<path style="stroke: none; stroke-width: 1; stroke-dasharray: none; stroke-linecap: butt; stroke-dashoffset: 0; stroke-linejoin: miter; stroke-miterlimit: 4; fill: rgb(0,0,0); fill-rule: evenodd; opacity: 1;" vector-effect="non-scaling-stroke"  transform=" translate(-47.53, 80.7)" d="M 67.4 -86.05 L 67.4 -86.05 M 64 -81.6 L 64 -81.6 M 64.3 -83.55 L 64.3 -83.55 M 64.85 -85.25 L 64.85 -85.25 M 75.35 -80.6 L 75.35 -80.6 M 79.4 -77 L 79.4 -77 M 43.85 -82.2 L 43.85 -82.2 M 57.5 -83.15 L 57.5 -83.15 M 25.8 -80.45 L 25.8 -80.45 M 21.5 -81.1 L 21.5 -81.1 M 29.5 -76.9 L 29.5 -76.9 M 29.15 -79.85 L 29.15 -79.85 M 36.35 -80.6 L 36.35 -80.6 M 18 -83.55 L 18 -83.55 M 122.8 -75.5 L 122.8 -75.5 M 124.8 -76.45 L 124.8 -76.45 M 109.15 -86.45 L 109.15 -86.45 M 103.9 -86.35 L 103.9 -86.35 M 109.95 -77.4 L 109.95 -77.4 M 113.1 -78.45 L 113.1 -78.45 M 89.8 -76.9 L 89.8 -76.9 M 95.7 -77.15 L 95.7 -77.15 M 98.05 -76.75 L 98.05 -76.75 M -29.75 -74.95 L -29.75 -74.95" stroke-linecap="round" />
</g>
</g>
</g>
<g transform="matrix(1.26 0 0 1.26 275 200)"  >
<g style="" vector-effect="non-scaling-stroke"   >
		<g transform="matrix(0.03 0 0 0.03 -70.76 -19.56)"  >
<path style="stroke: none; stroke-width: 1; stroke-dasharray: none; stroke-linecap: butt; stroke-dashoffset: 0; stroke-linejoin: miter; stroke-miterlimit: 4; fill: rgb(0,0,0); fill-rule: evenodd; opacity: 1;" vector-effect="non-scaling-stroke"  transform=" translate(-230.25, 360.75)" d="M 56.5 -721.5 L 71.5 -721.5 Q 138.5 -721.5 148.5 -634.5 Q 123 -465.5 123 -404 L 123 -271 Q 123 -159.5 112.5 -107.5 Q 194 -123 276.5 -123 L 312 -123 Q 460.5 -112.5 460.5 -71.5 L 460.5 -51 Q 460.5 0 389 0 L 56.5 -5 Q 36 -5 0 -46 L 51 -716.5 L 56.5 -721.5" stroke-linecap="round" />
</g>
		<g transform="matrix(0.03 0 0 0.03 -57.14 -16.46)"  >
<path style="stroke: none; stroke-width: 1; stroke-dasharray: none; stroke-linecap: butt; stroke-dashoffset: 0; stroke-linejoin: miter; stroke-miterlimit: 4; fill: rgb(0,0,0); fill-rule: evenodd; opacity: 1;" vector-effect="non-scaling-stroke"  transform=" translate(-247.5, 247.25)" d="M 149 -208.5 L 149 -202.5 Q 149 -131 220.5 -131 Q 346 -182.5 346 -250 L 346 -345.5 L 244.5 -369.5 Q 149 -350 149 -208.5 M 30 -167 Q 30 -494.5 262.5 -494.5 Q 465 -458 465 -292 Q 465 -128.5 304 -18 L 226.5 0 Q 98 0 48 -89.5 L 30 -167" stroke-linecap="round" />
</g>
		<g transform="matrix(0.03 0 0 0.03 -44.26 -16.26)"  >
<path style="stroke: none; stroke-width: 1; stroke-dasharray: none; stroke-linecap: butt; stroke-dashoffset: 0; stroke-linejoin: miter; stroke-miterlimit: 4; fill: rgb(0,0,0); fill-rule: evenodd; opacity: 1;" vector-effect="non-scaling-stroke"  transform=" translate(-232.25, 240)" d="M 118.5 -163 L 118.5 -148.5 L 127.5 -105 Q 220 -105 296 -346 L 300.5 -375 L 296 -375 L 264 -384.5 Q 158 -384.5 118.5 -163 M 218.5 -471 L 250.5 -476 L 255 -476 Q 360.5 -476 405.5 -341 L 405.5 -264 Q 405.5 -199 442 -71.5 L 442 -62 Q 442 -13.5 387.5 -9 Q 341.5 -29 305 -129 Q 211.5 -4 136.5 -4 L 104.5 -4 Q 34.5 -4 22.5 -129 L 22.5 -143.5 Q 22.5 -413.5 218.5 -471" stroke-linecap="round" />
</g>
		<g transform="matrix(0.03 0 0 0.03 -30.23 -20.19)"  >
<path style="stroke: none; stroke-width: 1; stroke-dasharray: none; stroke-linecap: butt; stroke-dashoffset: 0; stroke-linejoin: miter; stroke-miterlimit: 4; fill: rgb(0,0,0); fill-rule: evenodd; opacity: 1;" vector-effect="non-scaling-stroke"  transform=" translate(-284.75, 383.75)" d="M 269.5 -368.5 Q 159 -347 159 -202.5 L 159 -159.5 Q 162.5 -141 208 -141 L 238.5 -141 Q 337 -253 337 -350 Q 305.5 -368.5 275.5 -368.5 L 269.5 -368.5 M 361.5 -632.5 Q 361.5 -721.5 423 -767.5 L 441.5 -767.5 Q 500 -767.5 521 -202.5 L 539.5 -37 Q 539.5 -15 490.5 0 Q 392 -20 392 -129 L 386 -129 Q 302 -12.5 238.5 -12.5 L 195.5 -12.5 Q 30 -29 30 -141 L 30 -165.5 Q 30 -497 275.5 -497 Q 328.5 -497 361.5 -485 L 367.5 -503.5 L 361.5 -534 L 361.5 -632.5" stroke-linecap="round" />
</g>
		<g transform="matrix(0.03 0 0 0.03 -19.38 -19.53)"  >
<path style="stroke: none; stroke-width: 1; stroke-dasharray: none; stroke-linecap: butt; stroke-dashoffset: 0; stroke-linejoin: miter; stroke-miterlimit: 4; fill: rgb(0,0,0); fill-rule: evenodd; opacity: 1;" vector-effect="non-scaling-stroke"  transform=" translate(-114.25, 359.5)" d="M 26 -85 Q 38.5 -451 104.5 -451 L 117.5 -451 Q 163.5 -451 176.5 -229 Q 176.5 -41 91.5 0 Q 30 0 26 -85 M 39 -627.5 Q 39 -699.5 143.5 -719 L 156.5 -719 Q 202.5 -690.5 202.5 -634 Q 202.5 -588.5 143.5 -555.5 L 98 -555.5 Q 39 -564 39 -614.5 L 39 -627.5" stroke-linecap="round" />
</g>
		<g transform="matrix(0.03 0 0 0.03 -8.89 -15.96)"  >
<path style="stroke: none; stroke-width: 1; stroke-dasharray: none; stroke-linecap: butt; stroke-dashoffset: 0; stroke-linejoin: miter; stroke-miterlimit: 4; fill: rgb(0,0,0); fill-rule: evenodd; opacity: 1;" vector-effect="non-scaling-stroke"  transform=" translate(-277, 228.75)" d="M 71 -402 Q 71 -448.5 127 -453.5 Q 178.5 -453.5 178.5 -257 L 183.5 -257 Q 270.5 -429.5 347 -448.5 L 398.5 -448.5 Q 483 -399.5 483 -236.5 L 483 -102 Q 483 -33 445.5 -9 L 422 -9 Q 368.5 -9 361.5 -123 L 370.5 -334.5 L 366 -334.5 Q 285 -295 202 -45.5 Q 179 -4 141 -4 L 127 -4 Q 84 -4 75.5 -76.5 L 85 -190 L 71 -402" stroke-linecap="round" />
</g>
		<g transform="matrix(0.03 0 0 0.03 4.2 -13.08)"  >
<path style="stroke: none; stroke-width: 1; stroke-dasharray: none; stroke-linecap: butt; stroke-dashoffset: 0; stroke-linejoin: miter; stroke-miterlimit: 4; fill: rgb(0,0,0); fill-rule: evenodd; opacity: 1;" vector-effect="non-scaling-stroke"  transform=" translate(-201.5, 123.25)" d="M 294 -369 L 192.5 -369 Q 138 -294.5 138 -277 Q 163.5 -258.5 186.5 -258.5 Q 294 -281.5 294 -369 M 18.5 -277 Q 57 -498.5 192.5 -498.5 L 228 -498.5 Q 396 -472 396 -424.5 L 408 -191 L 408 -105 L 414.5 -68 Q 414.5 192 252.5 246 L 204.5 252 L 186.5 252 Q 75.5 252 -11.5 79.5 L -11.5 67.5 Q -2 42.5 30.5 42.5 Q 82 42.5 168.5 116.5 L 246.5 116.5 L 288.5 -0.5 L 288.5 -154 Q 232.5 -129 186.5 -129 L 168.5 -129 Q 24.5 -145 24.5 -252.5 L 18.5 -277" stroke-linecap="round" />
</g>
		<g transform="matrix(0.03 0 0 0.03 23.45 -13.08)"  >
<path style="stroke: none; stroke-width: 1; stroke-dasharray: none; stroke-linecap: butt; stroke-dashoffset: 0; stroke-linejoin: miter; stroke-miterlimit: 4; fill: rgb(0,0,0); fill-rule: evenodd; opacity: 1;" vector-effect="non-scaling-stroke"  transform=" translate(-201.5, 123.25)" d="M 294 -369 L 192.5 -369 Q 138 -294.5 138 -277 Q 163.5 -258.5 186.5 -258.5 Q 294 -281.5 294 -369 M 18.5 -277 Q 57 -498.5 192.5 -498.5 L 228 -498.5 Q 396 -472 396 -424.5 L 408 -191 L 408 -105 L 414.5 -68 Q 414.5 192 252.5 246 L 204.5 252 L 186.5 252 Q 75.5 252 -11.5 79.5 L -11.5 67.5 Q -2 42.5 30.5 42.5 Q 82 42.5 168.5 116.5 L 246.5 116.5 L 288.5 -0.5 L 288.5 -154 Q 232.5 -129 186.5 -129 L 168.5 -129 Q 24.5 -145 24.5 -252.5 L 18.5 -277" stroke-linecap="round" />
</g>
		<g transform="matrix(0.03 0 0 0.03 36.59 -16.26)"  >
<path style="stroke: none; stroke-width: 1; stroke-dasharray: none; stroke-linecap: butt; stroke-dashoffset: 0; stroke-linejoin: miter; stroke-miterlimit: 4; fill: rgb(0,0,0); fill-rule: evenodd; opacity: 1;" vector-effect="non-scaling-stroke"  transform=" translate(-232.25, 240)" d="M 118.5 -163 L 118.5 -148.5 L 127.5 -105 Q 220 -105 296 -346 L 300.5 -375 L 296 -375 L 264 -384.5 Q 158 -384.5 118.5 -163 M 218.5 -471 L 250.5 -476 L 255 -476 Q 360.5 -476 405.5 -341 L 405.5 -264 Q 405.5 -199 442 -71.5 L 442 -62 Q 442 -13.5 387.5 -9 Q 341.5 -29 305 -129 Q 211.5 -4 136.5 -4 L 104.5 -4 Q 34.5 -4 22.5 -129 L 22.5 -143.5 Q 22.5 -413.5 218.5 -471" stroke-linecap="round" />
</g>
		<g transform="matrix(0.03 0 0 0.03 50.32 -16.46)"  >
<path style="stroke: none; stroke-width: 1; stroke-dasharray: none; stroke-linecap: butt; stroke-dashoffset: 0; stroke-linejoin: miter; stroke-miterlimit: 4; fill: rgb(0,0,0); fill-rule: evenodd; opacity: 1;" vector-effect="non-scaling-stroke"  transform=" translate(-273.5, 247.25)" d="M 105 -442 Q 105 -478 196 -494.5 Q 278 -494.5 310 -445.5 Q 310 -417 319 -403.5 Q 394 -484 446.5 -484 Q 514 -484 547 -368 L 547 -80.5 Q 530 -10.5 483 -10.5 Q 435 -10.5 428.5 -56 L 428.5 -70 Q 451.5 -167 451.5 -319 L 451.5 -326 L 433 -393 L 428.5 -393 Q 386 -349.5 337.5 -186 Q 312 -165 282.5 -165 Q 237 -165 228 -214 L 237 -277 Q 224 -417.5 205 -417.5 Q 105 -318.5 105 -80.5 Q 105 0 50 0 Q 4.5 0 4.5 -42 L 0 -56 L 4.5 -73.5 Q 18.5 -456 36.5 -456 L 64 -459.5 Q 82.5 -459.5 100.5 -442 L 105 -442" stroke-linecap="round" />
</g>
		<g transform="matrix(0.03 0 0 0.03 64.43 -16.3)"  >
<path style="stroke: none; stroke-width: 1; stroke-dasharray: none; stroke-linecap: butt; stroke-dashoffset: 0; stroke-linejoin: miter; stroke-miterlimit: 4; fill: rgb(0,0,0); fill-rule: evenodd; opacity: 1;" vector-effect="non-scaling-stroke"  transform=" translate(-217.25, 241.5)" d="M 289.5 -369 Q 225 -369 160 -285.5 L 169.5 -285.5 Q 299.5 -285.5 299.5 -348 L 299.5 -369 L 289.5 -369 M 214.5 -467 L 270 -483 L 294.5 -483 Q 384.5 -465.5 384.5 -363.5 L 384.5 -322 Q 384.5 -254.5 305 -223 L 135 -197.5 L 125 -166.5 L 125 -155.5 Q 125 -124.5 169.5 -99 L 355 -119.5 Q 404.5 -119.5 404.5 -83 L 404.5 -72.5 Q 404.5 0 209.5 0 Q 76.5 0 35 -114 L 30 -161 Q 30 -363.5 214.5 -467" stroke-linecap="round" />
</g>
		<g transform="matrix(0.03 0 0 0.03 73.47 -10.67)"  >
<path style="stroke: none; stroke-width: 1; stroke-dasharray: none; stroke-linecap: butt; stroke-dashoffset: 0; stroke-linejoin: miter; stroke-miterlimit: 4; fill: rgb(0,0,0); fill-rule: evenodd; opacity: 1;" vector-effect="non-scaling-stroke"  transform=" translate(-112.5, 35.25)" d="M 92 -163.5 Q 92 -209.5 138.5 -209.5 Q 218.5 -209.5 243.5 -81.5 Q 214 134 80.5 134 L 63 139 Q -18.5 116.5 -18.5 72.5 Q -18.5 46.5 74.5 0.5 Q 115.5 -34.5 115.5 -97 L 115.5 -102 L 92 -163.5" stroke-linecap="round" />
</g>
		<g transform="matrix(0.03 0 0 0.03 -66.22 20.75)"  >
<path style="stroke: none; stroke-width: 1; stroke-dasharray: none; stroke-linecap: butt; stroke-dashoffset: 0; stroke-linejoin: miter; stroke-miterlimit: 4; fill: rgb(0,0,0); fill-rule: evenodd; opacity: 1;" vector-effect="non-scaling-stroke"  transform=" translate(-213.5, 129.5)" d="M 146.5 -276 L 134 -221 Q 248.5 -241.5 299 -282 L 299 -287.5 L 256.5 -393 L 250.5 -393 Q 164 -393 146.5 -276 M 37 -393 Q 147 -492.5 256.5 -492.5 L 268.5 -492.5 Q 366 -492.5 414.5 -287.5 Q 414.5 -162.5 122 -104.5 L 134 156 Q 134 193.5 79.5 233.5 L 55 233.5 Q 18.5 216.5 12.5 72.5 L 37 -393" stroke-linecap="round" />
</g>
		<g transform="matrix(0.03 0 0 0.03 -58.71 15.09)"  >
<path style="stroke: none; stroke-width: 1; stroke-dasharray: none; stroke-linecap: butt; stroke-dashoffset: 0; stroke-linejoin: miter; stroke-miterlimit: 4; fill: rgb(0,0,0); fill-rule: evenodd; opacity: 1;" vector-effect="non-scaling-stroke"  transform=" translate(-78.25, 337)" d="M 20 -29 Q 20 -674 88 -674 L 102.5 -674 Q 136.5 -648 136.5 -538 L 136.5 -489.5 Q 136.5 -128.5 92.5 -19.5 L 73.5 0 L 44 0 Q 20 -14 20 -29" stroke-linecap="round" />
</g>
		<g transform="matrix(0.03 0 0 0.03 -50.72 17.7)"  >
<path style="stroke: none; stroke-width: 1; stroke-dasharray: none; stroke-linecap: butt; stroke-dashoffset: 0; stroke-linejoin: miter; stroke-miterlimit: 4; fill: rgb(0,0,0); fill-rule: evenodd; opacity: 1;" vector-effect="non-scaling-stroke"  transform=" translate(-217.25, 241.5)" d="M 289.5 -369 Q 225 -369 160 -285.5 L 169.5 -285.5 Q 299.5 -285.5 299.5 -348 L 299.5 -369 L 289.5 -369 M 214.5 -467 L 270 -483 L 294.5 -483 Q 384.5 -465.5 384.5 -363.5 L 384.5 -322 Q 384.5 -254.5 305 -223 L 135 -197.5 L 125 -166.5 L 125 -155.5 Q 125 -124.5 169.5 -99 L 355 -119.5 Q 404.5 -119.5 404.5 -83 L 404.5 -72.5 Q 404.5 0 209.5 0 Q 76.5 0 35 -114 L 30 -161 Q 30 -363.5 214.5 -467" stroke-linecap="round" />
</g>
		<g transform="matrix(0.03 0 0 0.03 -38.41 17.74)"  >
<path style="stroke: none; stroke-width: 1; stroke-dasharray: none; stroke-linecap: butt; stroke-dashoffset: 0; stroke-linejoin: miter; stroke-miterlimit: 4; fill: rgb(0,0,0); fill-rule: evenodd; opacity: 1;" vector-effect="non-scaling-stroke"  transform=" translate(-232.25, 240)" d="M 118.5 -163 L 118.5 -148.5 L 127.5 -105 Q 220 -105 296 -346 L 300.5 -375 L 296 -375 L 264 -384.5 Q 158 -384.5 118.5 -163 M 218.5 -471 L 250.5 -476 L 255 -476 Q 360.5 -476 405.5 -341 L 405.5 -264 Q 405.5 -199 442 -71.5 L 442 -62 Q 442 -13.5 387.5 -9 Q 341.5 -29 305 -129 Q 211.5 -4 136.5 -4 L 104.5 -4 Q 34.5 -4 22.5 -129 L 22.5 -143.5 Q 22.5 -413.5 218.5 -471" stroke-linecap="round" />
</g>
		<g transform="matrix(0.03 0 0 0.03 -27.2 17.13)"  >
<path style="stroke: none; stroke-width: 1; stroke-dasharray: none; stroke-linecap: butt; stroke-dashoffset: 0; stroke-linejoin: miter; stroke-miterlimit: 4; fill: rgb(0,0,0); fill-rule: evenodd; opacity: 1;" vector-effect="non-scaling-stroke"  transform=" translate(-181.25, 262.25)" d="M 289 -524.5 L 306 -524.5 Q 345 -507.5 345 -458.5 Q 345 -411 267 -386 Q 394.5 -315 394.5 -115 Q 366.5 0 311 0 L 273 0 Q -32 -23.5 -32 -145 Q -26.5 -205 17.5 -205 L 256 -126.5 L 283.5 -126.5 Q 283.5 -183.5 244.5 -247 Q 84 -247 84 -338 Q 84 -462.5 289 -524.5" stroke-linecap="round" />
</g>
		<g transform="matrix(0.03 0 0 0.03 -15.37 17.7)"  >
<path style="stroke: none; stroke-width: 1; stroke-dasharray: none; stroke-linecap: butt; stroke-dashoffset: 0; stroke-linejoin: miter; stroke-miterlimit: 4; fill: rgb(0,0,0); fill-rule: evenodd; opacity: 1;" vector-effect="non-scaling-stroke"  transform=" translate(-217.25, 241.5)" d="M 289.5 -369 Q 225 -369 160 -285.5 L 169.5 -285.5 Q 299.5 -285.5 299.5 -348 L 299.5 -369 L 289.5 -369 M 214.5 -467 L 270 -483 L 294.5 -483 Q 384.5 -465.5 384.5 -363.5 L 384.5 -322 Q 384.5 -254.5 305 -223 L 135 -197.5 L 125 -166.5 L 125 -155.5 Q 125 -124.5 169.5 -99 L 355 -119.5 Q 404.5 -119.5 404.5 -83 L 404.5 -72.5 Q 404.5 0 209.5 0 Q 76.5 0 35 -114 L 30 -161 Q 30 -363.5 214.5 -467" stroke-linecap="round" />
</g>
		<g transform="matrix(0.03 0 0 0.03 6.7 18.13)"  >
<path style="stroke: none; stroke-width: 1; stroke-dasharray: none; stroke-linecap: butt; stroke-dashoffset: 0; stroke-linejoin: miter; stroke-miterlimit: 4; fill: rgb(0,0,0); fill-rule: evenodd; opacity: 1;" vector-effect="non-scaling-stroke"  transform=" translate(-335.25, 225.5)" d="M 0 -397.5 Q 0 -429 35.5 -451 L 47.5 -451 Q 122 -451 130.5 -249.5 L 154.5 -160.5 L 160.5 -160.5 Q 231 -347 267 -409.5 L 308.5 -433.5 Q 411 -433.5 427.5 -178 Q 447.5 -178 522.5 -386 Q 567.5 -445 599.5 -445 L 617.5 -445 Q 666.5 -445 670.5 -386 Q 646.5 -213 486.5 -35.5 Q 451 -12 421.5 -12 L 403.5 -12 Q 344.5 -12 297 -142.5 L 291 -142.5 Q 239.5 0 136.5 0 Q 43 0 0 -380 L 0 -397.5" stroke-linecap="round" />
</g>
		<g transform="matrix(0.03 0 0 0.03 22.64 17.74)"  >
<path style="stroke: none; stroke-width: 1; stroke-dasharray: none; stroke-linecap: butt; stroke-dashoffset: 0; stroke-linejoin: miter; stroke-miterlimit: 4; fill: rgb(0,0,0); fill-rule: evenodd; opacity: 1;" vector-effect="non-scaling-stroke"  transform=" translate(-232.25, 240)" d="M 118.5 -163 L 118.5 -148.5 L 127.5 -105 Q 220 -105 296 -346 L 300.5 -375 L 296 -375 L 264 -384.5 Q 158 -384.5 118.5 -163 M 218.5 -471 L 250.5 -476 L 255 -476 Q 360.5 -476 405.5 -341 L 405.5 -264 Q 405.5 -199 442 -71.5 L 442 -62 Q 442 -13.5 387.5 -9 Q 341.5 -29 305 -129 Q 211.5 -4 136.5 -4 L 104.5 -4 Q 34.5 -4 22.5 -129 L 22.5 -143.5 Q 22.5 -413.5 218.5 -471" stroke-linecap="round" />
</g>
		<g transform="matrix(0.03 0 0 0.03 32.02 14.47)"  >
<path style="stroke: none; stroke-width: 1; stroke-dasharray: none; stroke-linecap: butt; stroke-dashoffset: 0; stroke-linejoin: miter; stroke-miterlimit: 4; fill: rgb(0,0,0); fill-rule: evenodd; opacity: 1;" vector-effect="non-scaling-stroke"  transform=" translate(-114.25, 359.5)" d="M 26 -85 Q 38.5 -451 104.5 -451 L 117.5 -451 Q 163.5 -451 176.5 -229 Q 176.5 -41 91.5 0 Q 30 0 26 -85 M 39 -627.5 Q 39 -699.5 143.5 -719 L 156.5 -719 Q 202.5 -690.5 202.5 -634 Q 202.5 -588.5 143.5 -555.5 L 98 -555.5 Q 39 -564 39 -614.5 L 39 -627.5" stroke-linecap="round" />
</g>
		<g transform="matrix(0.03 0 0 0.03 39.5 15.96)"  >
<path style="stroke: none; stroke-width: 1; stroke-dasharray: none; stroke-linecap: butt; stroke-dashoffset: 0; stroke-linejoin: miter; stroke-miterlimit: 4; fill: rgb(0,0,0); fill-rule: evenodd; opacity: 1;" vector-effect="non-scaling-stroke"  transform=" translate(-166.75, 305.25)" d="M 107 -562 Q 128.5 -610.5 149.5 -610.5 L 158 -610.5 Q 184 -610.5 188 -495.5 Q 315.5 -495.5 333.5 -435 L 333.5 -423 Q 333.5 -387 192.5 -375 L 192.5 -368.5 L 188 -211.5 L 196.5 -84.5 Q 182 0 141 0 Q 89.5 0 81 -187.5 L 81 -205.5 L 85.5 -356.5 Q 0 -362.5 0 -393 L 0 -399 Q 0 -476.5 77 -489.5 Q 107 -489.5 107 -562" stroke-linecap="round" />
</g>
		<g transform="matrix(0.03 0 0 0.03 47.79 21.78)"  >
<path style="stroke: none; stroke-width: 1; stroke-dasharray: none; stroke-linecap: butt; stroke-dashoffset: 0; stroke-linejoin: miter; stroke-miterlimit: 4; fill: rgb(0,0,0); fill-rule: evenodd; opacity: 1;" vector-effect="non-scaling-stroke"  transform=" translate(-133.25, 91.75)" d="M 56.5 -79 Q 56.5 -156.5 119 -168.5 L 143 -168.5 Q 210 -145.5 210 -104.5 Q 184.5 -15 128.5 -15 L 109.5 -15 Q 56.5 -15 56.5 -79" stroke-linecap="round" />
</g>
		<g transform="matrix(0.03 0 0 0.03 55.44 21.78)"  >
<path style="stroke: none; stroke-width: 1; stroke-dasharray: none; stroke-linecap: butt; stroke-dashoffset: 0; stroke-linejoin: miter; stroke-miterlimit: 4; fill: rgb(0,0,0); fill-rule: evenodd; opacity: 1;" vector-effect="non-scaling-stroke"  transform=" translate(-133.25, 91.75)" d="M 56.5 -79 Q 56.5 -156.5 119 -168.5 L 143 -168.5 Q 210 -145.5 210 -104.5 Q 184.5 -15 128.5 -15 L 109.5 -15 Q 56.5 -15 56.5 -79" stroke-linecap="round" />
</g>
		<g transform="matrix(0.03 0 0 0.03 63.09 21.78)"  >
<path style="stroke: none; stroke-width: 1; stroke-dasharray: none; stroke-linecap: butt; stroke-dashoffset: 0; stroke-linejoin: miter; stroke-miterlimit: 4; fill: rgb(0,0,0); fill-rule: evenodd; opacity: 1;" vector-effect="non-scaling-stroke"  transform=" translate(-133.25, 91.75)" d="M 56.5 -79 Q 56.5 -156.5 119 -168.5 L 143 -168.5 Q 210 -145.5 210 -104.5 Q 184.5 -15 128.5 -15 L 109.5 -15 Q 56.5 -15 56.5 -79" stroke-linecap="round" />
</g>
</g>
</g>
</svg>